<?xml version="1.0" encoding="UTF-8" standalone="no"?>
<!DOCTYPE svg PUBLIC "-//W3C//DTD SVG 1.1//EN"
 "http://www.w3.org/Graphics/SVG/1.1/DTD/svg11.dtd">
<!-- Generated by graphviz version 2.40.1 (20161225.0304)
 -->
<!-- Title: G Pages: 1 -->
<svg width="1124pt" height="175pt"
 viewBox="0.00 0.00 1124.00 175.00" xmlns="http://www.w3.org/2000/svg" xmlns:xlink="http://www.w3.org/1999/xlink">
<g id="graph0" class="graph" transform="scale(1 1) rotate(0) translate(4 171)">
<title>G</title>
<polygon fill="#ffffff" stroke="transparent" points="-4,4 -4,-171 1120,-171 1120,4 -4,4"/>
<!-- n_github_com_alajmo_mani -->
<g id="node1" class="node">
<title>n_github_com_alajmo_mani</title>
<g id="a_node1"><a xlink:href="https://pkg.go.dev/github.com/alajmo/mani" xlink:title="github.com/alajmo/mani\l7 / 87B\l" target="_graphviz">
<polygon fill="none" stroke="#91075a" stroke-width="2" stroke-opacity="0.698039" points="234,-59 90,-59 90,-23 234,-23 234,-59"/>
<text text-anchor="start" x="98" y="-44" font-family="Times,serif" font-size="10.00" fill="#000000">github.com/alajmo/mani</text>
<text text-anchor="start" x="98" y="-33" font-family="Times,serif" font-size="10.00" fill="#000000">7 / 87B</text>
</a>
</g>
</g>
<!-- n_github_com_alajmo_mani_cmd -->
<g id="node2" class="node">
<title>n_github_com_alajmo_mani_cmd</title>
<g id="a_node2"><a xlink:href="https://pkg.go.dev/github.com/alajmo/mani/cmd" xlink:title="github.com/alajmo/mani/cmd\l1200 / 40.3KB\l" target="_graphviz">
<polygon fill="none" stroke="#170791" stroke-width="2" stroke-opacity="0.698039" points="576,-59 432,-59 432,-23 576,-23 576,-59"/>
<text text-anchor="start" x="440" y="-44" font-family="Times,serif" font-size="10.00" fill="#000000">github.com/alajmo/mani/cmd</text>
<text text-anchor="start" x="440" y="-33" font-family="Times,serif" font-size="10.00" fill="#000000">1200 / 40.3KB</text>
</a>
</g>
</g>
<!-- n_github_com_alajmo_mani&#45;&gt;n_github_com_alajmo_mani_cmd -->
<g id="edge1" class="edge">
<title>n_github_com_alajmo_mani:e&#45;&gt;n_github_com_alajmo_mani_cmd</title>
<path fill="none" stroke="#170791" stroke-width="2" stroke-opacity="0.698039" d="M234,-41C296.9727,-41 368.207,-41 421.6902,-41"/>
<polygon fill="#170791" fill-opacity="0.698039" stroke="#170791" stroke-width="2" stroke-opacity="0.698039" points="421.8029,-44.5001 431.8028,-41 421.8028,-37.5001 421.8029,-44.5001"/>
</g>
<!-- n_github_com_alajmo_mani_core -->
<g id="node3" class="node">
<title>n_github_com_alajmo_mani_core</title>
<g id="a_node3"><a xlink:href="https://pkg.go.dev/github.com/alajmo/mani/core" xlink:title="github.com/alajmo/mani/core\l427 / 10.0KB\l" target="_graphviz">
<polygon fill="none" stroke="#073291" stroke-width="2" stroke-opacity="0.698039" points="1116,-59 972,-59 972,-23 1116,-23 1116,-59"/>
<text text-anchor="start" x="980" y="-44" font-family="Times,serif" font-size="10.00" fill="#000000">github.com/alajmo/mani/core</text>
<text text-anchor="start" x="980" y="-33" font-family="Times,serif" font-size="10.00" fill="#000000">427 / 10.0KB</text>
</a>
</g>
</g>
<!-- n_github_com_alajmo_mani_cmd&#45;&gt;n_github_com_alajmo_mani_core -->
<g id="edge2" class="edge">
<title>n_github_com_alajmo_mani_cmd:e&#45;&gt;n_github_com_alajmo_mani_core</title>
<path fill="none" stroke="#073291" stroke-width="2" stroke-opacity="0.698039" d="M576,-41C624.0329,-41 635.9753,-44.111 684,-45 763.9863,-46.4807 784.0049,-45.8887 864,-45 895.8724,-44.6459 930.9134,-43.9392 961.5416,-43.2171"/>
<polygon fill="#073291" fill-opacity="0.698039" stroke="#073291" stroke-width="2" stroke-opacity="0.698039" points="961.8353,-46.7111 971.7484,-42.972 961.6673,-39.7131 961.8353,-46.7111"/>
</g>
<!-- n_github_com_alajmo_mani_core_dao -->
<g id="node4" class="node">
<title>n_github_com_alajmo_mani_core_dao</title>
<g id="a_node4"><a xlink:href="https://pkg.go.dev/github.com/alajmo/mani/core/dao" xlink:title="github.com/alajmo/mani/core/dao\l2495 / 61.6KB\l" target="_graphviz">
<polygon fill="none" stroke="#07912e" stroke-width="2" stroke-opacity="0.698039" points="864,-36 684,-36 684,0 864,0 864,-36"/>
<text text-anchor="start" x="692" y="-21" font-family="Times,serif" font-size="10.00" fill="#000000">github.com/alajmo/mani/core/dao</text>
<text text-anchor="start" x="692" y="-10" font-family="Times,serif" font-size="10.00" fill="#000000">2495 / 61.6KB</text>
</a>
</g>
</g>
<!-- n_github_com_alajmo_mani_cmd&#45;&gt;n_github_com_alajmo_mani_core_dao -->
<g id="edge3" class="edge">
<title>n_github_com_alajmo_mani_cmd:e&#45;&gt;n_github_com_alajmo_mani_core_dao</title>
<path fill="none" stroke="#07912e" stroke-width="2" stroke-opacity="0.698039" d="M576,-41C607.8512,-41 642.3931,-38.027 673.5739,-34.2188"/>
<polygon fill="#07912e" fill-opacity="0.698039" stroke="#07912e" stroke-width="2" stroke-opacity="0.698039" points="674.0893,-37.6816 683.5717,-32.9557 673.2119,-30.7368 674.0893,-37.6816"/>
</g>
<!-- n_github_com_alajmo_mani_core_dao&#45;&gt;n_github_com_alajmo_mani_core -->
<g id="edge4" class="edge">
<title>n_github_com_alajmo_mani_core_dao:e&#45;&gt;n_github_com_alajmo_mani_core</title>
<path fill="none" stroke="#073291" stroke-width="2" stroke-opacity="0.698039" d="M864,-18C895.984,-18 930.9089,-21.6173 961.4119,-25.9828"/>
<polygon fill="#073291" fill-opacity="0.698039" stroke="#073291" stroke-width="2" stroke-opacity="0.698039" points="961.1714,-29.4852 971.5762,-27.4878 962.1967,-22.5607 961.1714,-29.4852"/>
</g>
<!-- n_github_com_alajmo_mani_test_integration -->
<g id="node5" class="node">
<title>n_github_com_alajmo_mani_test_integration</title>
<g id="a_node5"><a xlink:href="https://pkg.go.dev/github.com/alajmo/mani/test/integration" xlink:title="github.com/alajmo/mani/test/integration\l0 / 0B\l" target="_graphviz">
<polygon fill="none" stroke="#075f91" stroke-width="2" stroke-opacity="0.698039" points="270,-113 54,-113 54,-77 270,-77 270,-113"/>
<text text-anchor="start" x="62" y="-98" font-family="Times,serif" font-size="10.00" fill="#000000">github.com/alajmo/mani/test/integration</text>
<text text-anchor="start" x="62" y="-87" font-family="Times,serif" font-size="10.00" fill="#000000">0 / 0B</text>
</a>
</g>
</g>
<!-- n_github_com_alajmo_mani_test_playground_frontend_pinto_bin_templates_go -->
<g id="node6" class="node">
<title>n_github_com_alajmo_mani_test_playground_frontend_pinto_bin_templates_go</title>
<g id="a_node6"><a xlink:href="https://pkg.go.dev/github.com/alajmo/mani/test/playground/frontend/pinto/bin/templates/go" xlink:title="github.com/alajmo/mani/test/playground/frontend/pinto/bin/templates/go\l158 / 4.1KB\l" target="_graphviz">
<polygon fill="none" stroke="#070891" stroke-width="2" stroke-opacity="0.698039" points="324,-167 0,-167 0,-131 324,-131 324,-167"/>
<text text-anchor="start" x="8" y="-152" font-family="Times,serif" font-size="10.00" fill="#000000">github.com/alajmo/mani/test/playground/frontend/pinto/bin/templates/go</text>
<text text-anchor="start" x="8" y="-141" font-family="Times,serif" font-size="10.00" fill="#000000">158 / 4.1KB</text>
</a>
</g>
</g>
</g>
</svg>
