<?xml version="1.0" encoding="UTF-8" standalone="no"?>
<!DOCTYPE svg PUBLIC "-//W3C//DTD SVG 1.1//EN"
 "http://www.w3.org/Graphics/SVG/1.1/DTD/svg11.dtd">
<!-- Generated by graphviz version 2.42.4 (0)
 -->
<!-- Title: G Pages: 1 -->
<svg width="3140pt" height="556pt"
 viewBox="0.00 0.00 3140.00 556.16" xmlns="http://www.w3.org/2000/svg" xmlns:xlink="http://www.w3.org/1999/xlink">
<g id="graph0" class="graph" transform="scale(1 1) rotate(0) translate(4 552.16)">
<title>G</title>
<polygon fill="white" stroke="transparent" points="-4,4 -4,-552.16 3136,-552.16 3136,4 -4,4"/>
<!-- github.com/alajmo/mani -->
<g id="node1" class="node">
<title>github.com/alajmo/mani</title>
<g id="a_node1"><a xlink:href="https://pkg.go.dev/github.com/alajmo/mani" xlink:title="github.com/alajmo/mani\l7 / 87B\l" target="_graphviz">
<polygon fill="none" stroke="#91075a" stroke-width="2" stroke-opacity="0.698039" points="198,-490.09 54,-490.09 54,-454.09 198,-454.09 198,-490.09"/>
<text text-anchor="start" x="62" y="-475.09" font-family="Times,serif" font-size="10.00">github.com/alajmo/mani</text>
<text text-anchor="start" x="62" y="-464.09" font-family="Times,serif" font-size="10.00">7 / 87B</text>
</a>
</g>
</g>
<!-- github.com/alajmo/mani/cmd -->
<g id="node2" class="node">
<title>github.com/alajmo/mani/cmd</title>
<g id="a_node2"><a xlink:href="https://pkg.go.dev/github.com/alajmo/mani/cmd" xlink:title="github.com/alajmo/mani/cmd\l1339 / 46.5KB\l" target="_graphviz">
<polygon fill="none" stroke="#170791" stroke-width="2" stroke-opacity="0.698039" points="540,-490.09 360,-490.09 360,-454.09 540,-454.09 540,-490.09"/>
<text text-anchor="start" x="368" y="-475.09" font-family="Times,serif" font-size="10.00">github.com/alajmo/mani/cmd</text>
<text text-anchor="start" x="368" y="-464.09" font-family="Times,serif" font-size="10.00">1339 / 46.5KB</text>
</a>
</g>
</g>
<!-- github.com/alajmo/mani&#45;&gt;github.com/alajmo/mani/cmd -->
<g id="edge1" class="edge">
<title>github.com/alajmo/mani:e&#45;&gt;github.com/alajmo/mani/cmd</title>
<path fill="none" stroke="#170791" stroke-width="2" stroke-opacity="0.698039" d="M199,-472.09C248.63,-472.09 303.81,-472.09 349.67,-472.09"/>
<polygon fill="#170791" fill-opacity="0.698039" stroke="#170791" stroke-width="2" stroke-opacity="0.698039" points="349.91,-475.59 359.91,-472.09 349.91,-468.59 349.91,-475.59"/>
</g>
<!-- github.com/alajmo/mani/core -->
<g id="node3" class="node">
<title>github.com/alajmo/mani/core</title>
<g id="a_node3"><a xlink:href="https://pkg.go.dev/github.com/alajmo/mani/core" xlink:title="github.com/alajmo/mani/core\l788 / 19.8KB\l" target="_graphviz">
<polygon fill="none" stroke="#073291" stroke-width="2" stroke-opacity="0.698039" points="3132,-304.09 2952,-304.09 2952,-268.09 3132,-268.09 3132,-304.09"/>
<text text-anchor="start" x="2960" y="-289.09" font-family="Times,serif" font-size="10.00">github.com/alajmo/mani/core</text>
<text text-anchor="start" x="2960" y="-278.09" font-family="Times,serif" font-size="10.00">788 / 19.8KB</text>
</a>
</g>
</g>
<!-- github.com/alajmo/mani/cmd&#45;&gt;github.com/alajmo/mani/core -->
<g id="edge2" class="edge">
<title>github.com/alajmo/mani/cmd:e&#45;&gt;github.com/alajmo/mani/core</title>
<path fill="none" stroke="#073291" stroke-width="2" stroke-opacity="0.698039" d="M540,-472.09C590.74,-472.09 598.38,-498.51 648,-509.09 836.11,-549.21 886.66,-548.09 1079,-548.09 1079,-548.09 1079,-548.09 2413,-548.09 2658.81,-548.09 2919.9,-375.01 3009.05,-310.2"/>
<polygon fill="#073291" fill-opacity="0.698039" stroke="#073291" stroke-width="2" stroke-opacity="0.698039" points="3011.38,-312.83 3017.38,-304.1 3007.25,-307.19 3011.38,-312.83"/>
</g>
<!-- github.com/alajmo/mani/core/dao -->
<g id="node4" class="node">
<title>github.com/alajmo/mani/core/dao</title>
<g id="a_node4"><a xlink:href="https://pkg.go.dev/github.com/alajmo/mani/core/dao" xlink:title="github.com/alajmo/mani/core/dao\l2804 / 72.8KB\l" target="_graphviz">
<polygon fill="none" stroke="#07912e" stroke-width="2" stroke-opacity="0.698039" points="2844,-262.09 2628,-262.09 2628,-226.09 2844,-226.09 2844,-262.09"/>
<text text-anchor="start" x="2636" y="-247.09" font-family="Times,serif" font-size="10.00">github.com/alajmo/mani/core/dao</text>
<text text-anchor="start" x="2636" y="-236.09" font-family="Times,serif" font-size="10.00">2804 / 72.8KB</text>
</a>
</g>
</g>
<!-- github.com/alajmo/mani/cmd&#45;&gt;github.com/alajmo/mani/core/dao -->
<g id="edge3" class="edge">
<title>github.com/alajmo/mani/cmd:e&#45;&gt;github.com/alajmo/mani/core/dao</title>
<path fill="none" stroke="#07912e" stroke-width="2" stroke-opacity="0.698039" d="M540,-472.09C665.54,-472.09 558.76,-299.39 648,-211.09 794.73,-65.91 872.59,-38.09 1079,-38.09 1079,-38.09 1079,-38.09 2089,-38.09 2285.15,-38.09 2335.52,-66.43 2520,-133.09 2584.96,-156.57 2655.18,-195.68 2697.09,-220.66"/>
<polygon fill="#07912e" fill-opacity="0.698039" stroke="#07912e" stroke-width="2" stroke-opacity="0.698039" points="2695.47,-223.77 2705.85,-225.91 2699.08,-217.77 2695.47,-223.77"/>
</g>
<!-- github.com/alajmo/mani/core/exec -->
<g id="node5" class="node">
<title>github.com/alajmo/mani/core/exec</title>
<g id="a_node5"><a xlink:href="https://pkg.go.dev/github.com/alajmo/mani/core/exec" xlink:title="github.com/alajmo/mani/core/exec\l955 / 24.1KB\l" target="_graphviz">
<polygon fill="none" stroke="#076b91" stroke-width="2" stroke-opacity="0.698039" points="2196,-485.09 1980,-485.09 1980,-449.09 2196,-449.09 2196,-485.09"/>
<text text-anchor="start" x="1988" y="-470.09" font-family="Times,serif" font-size="10.00">github.com/alajmo/mani/core/exec</text>
<text text-anchor="start" x="1988" y="-459.09" font-family="Times,serif" font-size="10.00">955 / 24.1KB</text>
</a>
</g>
</g>
<!-- github.com/alajmo/mani/cmd&#45;&gt;github.com/alajmo/mani/core/exec -->
<g id="edge4" class="edge">
<title>github.com/alajmo/mani/cmd:e&#45;&gt;github.com/alajmo/mani/core/exec</title>
<path fill="none" stroke="#076b91" stroke-width="2" stroke-opacity="0.698039" d="M540,-472.09C779.56,-472.09 839.44,-472.09 1079,-472.09 1079,-472.09 1079,-472.09 1405,-472.09 1603.25,-472.09 1833.91,-469.95 1969.78,-468.47"/>
<polygon fill="#076b91" fill-opacity="0.698039" stroke="#076b91" stroke-width="2" stroke-opacity="0.698039" points="1969.84,-471.97 1979.8,-468.36 1969.77,-464.97 1969.84,-471.97"/>
</g>
<!-- github.com/alajmo/mani/core/print -->
<g id="node6" class="node">
<title>github.com/alajmo/mani/core/print</title>
<g id="a_node6"><a xlink:href="https://pkg.go.dev/github.com/alajmo/mani/core/print" xlink:title="github.com/alajmo/mani/core/print\l431 / 12.5KB\l" target="_graphviz">
<polygon fill="none" stroke="#070f91" stroke-width="2" stroke-opacity="0.698039" points="2520,-368.09 2304,-368.09 2304,-332.09 2520,-332.09 2520,-368.09"/>
<text text-anchor="start" x="2312" y="-353.09" font-family="Times,serif" font-size="10.00">github.com/alajmo/mani/core/print</text>
<text text-anchor="start" x="2312" y="-342.09" font-family="Times,serif" font-size="10.00">431 / 12.5KB</text>
</a>
</g>
</g>
<!-- github.com/alajmo/mani/cmd&#45;&gt;github.com/alajmo/mani/core/print -->
<g id="edge5" class="edge">
<title>github.com/alajmo/mani/cmd:e&#45;&gt;github.com/alajmo/mani/core/print</title>
<path fill="none" stroke="#070f91" stroke-width="2" stroke-opacity="0.698039" d="M540,-472.09C588.4,-472.09 599.8,-481.63 648,-486.09 839.04,-503.77 887.15,-510.09 1079,-510.09 1079,-510.09 1079,-510.09 1405,-510.09 1581.35,-510.09 2093.48,-412.98 2311.19,-370.07"/>
<polygon fill="#070f91" fill-opacity="0.698039" stroke="#070f91" stroke-width="2" stroke-opacity="0.698039" points="2311.88,-373.5 2321.02,-368.13 2310.53,-366.64 2311.88,-373.5"/>
</g>
<!-- github.com/alajmo/mani/core/tui -->
<g id="node7" class="node">
<title>github.com/alajmo/mani/core/tui</title>
<g id="a_node7"><a xlink:href="https://pkg.go.dev/github.com/alajmo/mani/core/tui" xlink:title="github.com/alajmo/mani/core/tui\l404 / 10.8KB\l" target="_graphviz">
<polygon fill="none" stroke="#918207" stroke-width="2" stroke-opacity="0.698039" points="864,-256.09 648,-256.09 648,-220.09 864,-220.09 864,-256.09"/>
<text text-anchor="start" x="656" y="-241.09" font-family="Times,serif" font-size="10.00">github.com/alajmo/mani/core/tui</text>
<text text-anchor="start" x="656" y="-230.09" font-family="Times,serif" font-size="10.00">404 / 10.8KB</text>
</a>
</g>
</g>
<!-- github.com/alajmo/mani/cmd&#45;&gt;github.com/alajmo/mani/core/tui -->
<g id="edge6" class="edge">
<title>github.com/alajmo/mani/cmd:e&#45;&gt;github.com/alajmo/mani/core/tui</title>
<path fill="none" stroke="#918207" stroke-width="2" stroke-opacity="0.698039" d="M540,-472.09C650.79,-472.09 720.07,-328.09 744.78,-266.02"/>
<polygon fill="#918207" fill-opacity="0.698039" stroke="#918207" stroke-width="2" stroke-opacity="0.698039" points="748.14,-267.04 748.49,-256.45 741.61,-264.51 748.14,-267.04"/>
</g>
<!-- github.com/alajmo/mani/core/dao&#45;&gt;github.com/alajmo/mani/core -->
<g id="edge7" class="edge">
<title>github.com/alajmo/mani/core/dao:e&#45;&gt;github.com/alajmo/mani/core</title>
<path fill="none" stroke="#073291" stroke-width="2" stroke-opacity="0.698039" d="M2844,-244.09C2888.94,-244.09 2938.41,-254.67 2976.53,-265.22"/>
<polygon fill="#073291" fill-opacity="0.698039" stroke="#073291" stroke-width="2" stroke-opacity="0.698039" points="2975.89,-268.67 2986.47,-268.03 2977.8,-261.94 2975.89,-268.67"/>
</g>
<!-- github.com/alajmo/mani/core/exec&#45;&gt;github.com/alajmo/mani/core -->
<g id="edge8" class="edge">
<title>github.com/alajmo/mani/core/exec:e&#45;&gt;github.com/alajmo/mani/core</title>
<path fill="none" stroke="#073291" stroke-width="2" stroke-opacity="0.698039" d="M2196,-467.09C2497.51,-467.09 2846.39,-355.54 2982.45,-307.58"/>
<polygon fill="#073291" fill-opacity="0.698039" stroke="#073291" stroke-width="2" stroke-opacity="0.698039" points="2984,-310.75 2992.26,-304.11 2981.66,-304.15 2984,-310.75"/>
</g>
<!-- github.com/alajmo/mani/core/exec&#45;&gt;github.com/alajmo/mani/core/dao -->
<g id="edge9" class="edge">
<title>github.com/alajmo/mani/core/exec:e&#45;&gt;github.com/alajmo/mani/core/dao</title>
<path fill="none" stroke="#07912e" stroke-width="2" stroke-opacity="0.698039" d="M2196,-467.09C2233.36,-467.09 2485.77,-392.07 2520,-377.09 2588.89,-346.95 2661.86,-297.59 2702.6,-268.23"/>
<polygon fill="#07912e" fill-opacity="0.698039" stroke="#07912e" stroke-width="2" stroke-opacity="0.698039" points="2704.75,-270.99 2710.79,-262.28 2700.64,-265.32 2704.75,-270.99"/>
</g>
<!-- github.com/alajmo/mani/core/exec&#45;&gt;github.com/alajmo/mani/core/print -->
<g id="edge10" class="edge">
<title>github.com/alajmo/mani/core/exec:e&#45;&gt;github.com/alajmo/mani/core/print</title>
<path fill="none" stroke="#070f91" stroke-width="2" stroke-opacity="0.698039" d="M2196,-467.09C2252.25,-467.09 2254.54,-427.89 2304,-401.09 2322.41,-391.11 2343.09,-381.01 2361.33,-372.45"/>
<polygon fill="#070f91" fill-opacity="0.698039" stroke="#070f91" stroke-width="2" stroke-opacity="0.698039" points="2363.03,-375.52 2370.62,-368.13 2360.08,-369.18 2363.03,-375.52"/>
</g>
<!-- github.com/alajmo/mani/core/print&#45;&gt;github.com/alajmo/mani/core -->
<g id="edge11" class="edge">
<title>github.com/alajmo/mani/core/print:e&#45;&gt;github.com/alajmo/mani/core</title>
<path fill="none" stroke="#073291" stroke-width="2" stroke-opacity="0.698039" d="M2520,-350.09C2667.87,-350.09 2837.61,-324.38 2942.08,-305.55"/>
<polygon fill="#073291" fill-opacity="0.698039" stroke="#073291" stroke-width="2" stroke-opacity="0.698039" points="2942.77,-308.98 2951.98,-303.75 2941.52,-302.09 2942.77,-308.98"/>
</g>
<!-- github.com/alajmo/mani/core/print&#45;&gt;github.com/alajmo/mani/core/dao -->
<g id="edge12" class="edge">
<title>github.com/alajmo/mani/core/print:e&#45;&gt;github.com/alajmo/mani/core/dao</title>
<path fill="none" stroke="#07912e" stroke-width="2" stroke-opacity="0.698039" d="M2520,-350.09C2557,-350.09 2646.34,-298.94 2697.45,-267.71"/>
<polygon fill="#07912e" fill-opacity="0.698039" stroke="#07912e" stroke-width="2" stroke-opacity="0.698039" points="2699.54,-270.53 2706.22,-262.31 2695.87,-264.57 2699.54,-270.53"/>
</g>
<!-- github.com/alajmo/mani/core/tui&#45;&gt;github.com/alajmo/mani/core -->
<g id="edge13" class="edge">
<title>github.com/alajmo/mani/core/tui:e&#45;&gt;github.com/alajmo/mani/core</title>
<path fill="none" stroke="#073291" stroke-width="2" stroke-opacity="0.698039" d="M864,-238.09C940.49,-238.09 907.38,-145.02 972,-104.09 1138.47,1.35 1205.95,-0.09 1403,-0.09 1403,-0.09 1403,-0.09 2413,-0.09 2664.3,-0.09 2925.42,-192.11 3011.54,-261.47"/>
<polygon fill="#073291" fill-opacity="0.698039" stroke="#073291" stroke-width="2" stroke-opacity="0.698039" points="3009.58,-264.39 3019.55,-267.98 3014,-258.96 3009.58,-264.39"/>
</g>
<!-- github.com/alajmo/mani/core/tui&#45;&gt;github.com/alajmo/mani/core/dao -->
<g id="edge14" class="edge">
<title>github.com/alajmo/mani/core/tui:e&#45;&gt;github.com/alajmo/mani/core/dao</title>
<path fill="none" stroke="#07912e" stroke-width="2" stroke-opacity="0.698039" d="M864,-238.09C916.71,-238.09 922.33,-206.73 972,-189.09 1158.62,-122.83 1204.97,-76.09 1403,-76.09 1403,-76.09 1403,-76.09 1747,-76.09 2093.77,-76.09 2180.74,-110.31 2520,-182.09 2571.48,-192.98 2628.67,-209.71 2671.12,-223.04"/>
<polygon fill="#07912e" fill-opacity="0.698039" stroke="#07912e" stroke-width="2" stroke-opacity="0.698039" points="2670.17,-226.41 2680.76,-226.09 2672.28,-219.74 2670.17,-226.41"/>
</g>
<!-- github.com/alajmo/mani/core/tui/components -->
<g id="node8" class="node">
<title>github.com/alajmo/mani/core/tui/components</title>
<g id="a_node8"><a xlink:href="https://pkg.go.dev/github.com/alajmo/mani/core/tui/components" xlink:title="github.com/alajmo/mani/core/tui/components\l1402 / 38.1KB\l" target="_graphviz">
<polygon fill="none" stroke="#91071e" stroke-width="2" stroke-opacity="0.698039" points="1872,-216.09 1620,-216.09 1620,-180.09 1872,-180.09 1872,-216.09"/>
<text text-anchor="start" x="1628" y="-201.09" font-family="Times,serif" font-size="10.00">github.com/alajmo/mani/core/tui/components</text>
<text text-anchor="start" x="1628" y="-190.09" font-family="Times,serif" font-size="10.00">1402 / 38.1KB</text>
</a>
</g>
</g>
<!-- github.com/alajmo/mani/core/tui&#45;&gt;github.com/alajmo/mani/core/tui/components -->
<g id="edge15" class="edge">
<title>github.com/alajmo/mani/core/tui:e&#45;&gt;github.com/alajmo/mani/core/tui/components</title>
<path fill="none" stroke="#91071e" stroke-width="2" stroke-opacity="0.698039" d="M864,-238.09C913.48,-238.09 922.95,-217.55 972,-211.09 1194.01,-181.86 1454.96,-185.21 1609.8,-191.09"/>
<polygon fill="#91071e" fill-opacity="0.698039" stroke="#91071e" stroke-width="2" stroke-opacity="0.698039" points="1609.72,-194.58 1619.85,-191.48 1609.99,-187.59 1609.72,-194.58"/>
</g>
<!-- github.com/alajmo/mani/core/tui/misc -->
<g id="node9" class="node">
<title>github.com/alajmo/mani/core/tui/misc</title>
<g id="a_node9"><a xlink:href="https://pkg.go.dev/github.com/alajmo/mani/core/tui/misc" xlink:title="github.com/alajmo/mani/core/tui/misc\l369 / 9.0KB\l" target="_graphviz">
<polygon fill="none" stroke="#078091" stroke-width="2" stroke-opacity="0.698039" points="2196,-323.09 1980,-323.09 1980,-287.09 2196,-287.09 2196,-323.09"/>
<text text-anchor="start" x="1988" y="-308.09" font-family="Times,serif" font-size="10.00">github.com/alajmo/mani/core/tui/misc</text>
<text text-anchor="start" x="1988" y="-297.09" font-family="Times,serif" font-size="10.00">369 / 9.0KB</text>
</a>
</g>
</g>
<!-- github.com/alajmo/mani/core/tui&#45;&gt;github.com/alajmo/mani/core/tui/misc -->
<g id="edge16" class="edge">
<title>github.com/alajmo/mani/core/tui:e&#45;&gt;github.com/alajmo/mani/core/tui/misc</title>
<path fill="none" stroke="#078091" stroke-width="2" stroke-opacity="0.698039" d="M864,-238.09C918.07,-238.09 920.48,-277.69 972,-294.09 1353.38,-415.49 1472.63,-351.41 1872,-325.09 1903.73,-323 1938.03,-320.1 1969.73,-317.15"/>
<polygon fill="#078091" fill-opacity="0.698039" stroke="#078091" stroke-width="2" stroke-opacity="0.698039" points="1970.29,-320.62 1979.92,-316.2 1969.63,-313.65 1970.29,-320.62"/>
</g>
<!-- github.com/alajmo/mani/core/tui/pages -->
<g id="node10" class="node">
<title>github.com/alajmo/mani/core/tui/pages</title>
<g id="a_node10"><a xlink:href="https://pkg.go.dev/github.com/alajmo/mani/core/tui/pages" xlink:title="github.com/alajmo/mani/core/tui/pages\l1130 / 34.5KB\l" target="_graphviz">
<polygon fill="none" stroke="#075f91" stroke-width="2" stroke-opacity="0.698039" points="1188,-256.09 972,-256.09 972,-220.09 1188,-220.09 1188,-256.09"/>
<text text-anchor="start" x="980" y="-241.09" font-family="Times,serif" font-size="10.00">github.com/alajmo/mani/core/tui/pages</text>
<text text-anchor="start" x="980" y="-230.09" font-family="Times,serif" font-size="10.00">1130 / 34.5KB</text>
</a>
</g>
</g>
<!-- github.com/alajmo/mani/core/tui&#45;&gt;github.com/alajmo/mani/core/tui/pages -->
<g id="edge17" class="edge">
<title>github.com/alajmo/mani/core/tui:e&#45;&gt;github.com/alajmo/mani/core/tui/pages</title>
<path fill="none" stroke="#075f91" stroke-width="2" stroke-opacity="0.698039" d="M864,-238.09C895.66,-238.09 929.94,-238.09 961.64,-238.09"/>
<polygon fill="#075f91" fill-opacity="0.698039" stroke="#075f91" stroke-width="2" stroke-opacity="0.698039" points="961.83,-241.59 971.83,-238.09 961.83,-234.59 961.83,-241.59"/>
</g>
<!-- github.com/alajmo/mani/core/tui/views -->
<g id="node11" class="node">
<title>github.com/alajmo/mani/core/tui/views</title>
<g id="a_node11"><a xlink:href="https://pkg.go.dev/github.com/alajmo/mani/core/tui/views" xlink:title="github.com/alajmo/mani/core/tui/views\l996 / 26.4KB\l" target="_graphviz">
<polygon fill="none" stroke="#079091" stroke-width="2" stroke-opacity="0.698039" points="1512,-330.09 1296,-330.09 1296,-294.09 1512,-294.09 1512,-330.09"/>
<text text-anchor="start" x="1304" y="-315.09" font-family="Times,serif" font-size="10.00">github.com/alajmo/mani/core/tui/views</text>
<text text-anchor="start" x="1304" y="-304.09" font-family="Times,serif" font-size="10.00">996 / 26.4KB</text>
</a>
</g>
</g>
<!-- github.com/alajmo/mani/core/tui&#45;&gt;github.com/alajmo/mani/core/tui/views -->
<g id="edge18" class="edge">
<title>github.com/alajmo/mani/core/tui:e&#45;&gt;github.com/alajmo/mani/core/tui/views</title>
<path fill="none" stroke="#079091" stroke-width="2" stroke-opacity="0.698039" d="M864,-238.09C913.48,-238.09 923.29,-256.39 972,-265.09 1077.31,-283.9 1198.53,-296.31 1285.53,-303.63"/>
<polygon fill="#079091" fill-opacity="0.698039" stroke="#079091" stroke-width="2" stroke-opacity="0.698039" points="1285.45,-307.14 1295.71,-304.48 1286.03,-300.16 1285.45,-307.14"/>
</g>
<!-- github.com/alajmo/mani/core/tui/components&#45;&gt;github.com/alajmo/mani/core/dao -->
<g id="edge19" class="edge">
<title>github.com/alajmo/mani/core/tui/components:e&#45;&gt;github.com/alajmo/mani/core/dao</title>
<path fill="none" stroke="#07912e" stroke-width="2" stroke-opacity="0.698039" d="M1872,-198.09C2138.92,-198.09 2451.62,-220.3 2617.57,-233.86"/>
<polygon fill="#07912e" fill-opacity="0.698039" stroke="#07912e" stroke-width="2" stroke-opacity="0.698039" points="2617.55,-237.37 2627.8,-234.7 2618.12,-230.39 2617.55,-237.37"/>
</g>
<!-- github.com/alajmo/mani/core/tui/components&#45;&gt;github.com/alajmo/mani/core/tui/misc -->
<g id="edge20" class="edge">
<title>github.com/alajmo/mani/core/tui/components:e&#45;&gt;github.com/alajmo/mani/core/tui/misc</title>
<path fill="none" stroke="#078091" stroke-width="2" stroke-opacity="0.698039" d="M1872,-198.09C1945.57,-198.09 2019.86,-248.92 2058.93,-280.51"/>
<polygon fill="#078091" fill-opacity="0.698039" stroke="#078091" stroke-width="2" stroke-opacity="0.698039" points="2056.78,-283.28 2066.72,-286.94 2061.23,-277.88 2056.78,-283.28"/>
</g>
<!-- github.com/alajmo/mani/core/tui/misc&#45;&gt;github.com/alajmo/mani/core/dao -->
<g id="edge21" class="edge">
<title>github.com/alajmo/mani/core/tui/misc:e&#45;&gt;github.com/alajmo/mani/core/dao</title>
<path fill="none" stroke="#07912e" stroke-width="2" stroke-opacity="0.698039" d="M2196,-305.09C2345.54,-305.09 2516.95,-281.62 2625.56,-263.8"/>
<polygon fill="#07912e" fill-opacity="0.698039" stroke="#07912e" stroke-width="2" stroke-opacity="0.698039" points="2626.25,-267.23 2635.54,-262.14 2625.11,-260.32 2626.25,-267.23"/>
</g>
<!-- github.com/alajmo/mani/core/tui/misc&#45;&gt;github.com/alajmo/mani/core/print -->
<g id="edge22" class="edge">
<title>github.com/alajmo/mani/core/tui/misc:e&#45;&gt;github.com/alajmo/mani/core/print</title>
<path fill="none" stroke="#070f91" stroke-width="2" stroke-opacity="0.698039" d="M2196,-305.09C2247.19,-305.09 2303.81,-317.46 2346.1,-329.23"/>
<polygon fill="#070f91" fill-opacity="0.698039" stroke="#070f91" stroke-width="2" stroke-opacity="0.698039" points="2345.4,-332.67 2355.98,-332.05 2347.32,-325.94 2345.4,-332.67"/>
</g>
<!-- github.com/alajmo/mani/core/tui/pages&#45;&gt;github.com/alajmo/mani/core -->
<g id="edge23" class="edge">
<title>github.com/alajmo/mani/core/tui/pages:e&#45;&gt;github.com/alajmo/mani/core</title>
<path fill="none" stroke="#073291" stroke-width="2" stroke-opacity="0.698039" d="M1188,-238.09C1242.7,-238.09 1243.54,-194.57 1296,-179.09 1468.53,-128.17 2195.75,-155.08 2196,-155.09 2340.37,-161.1 2376.16,-168.33 2520,-182.09 2664.18,-195.88 2702.72,-185.16 2844,-217.09 2894.34,-228.47 2949.65,-248.54 2988.81,-264.12"/>
<polygon fill="#073291" fill-opacity="0.698039" stroke="#073291" stroke-width="2" stroke-opacity="0.698039" points="2987.82,-267.49 2998.41,-267.97 2990.43,-261 2987.82,-267.49"/>
</g>
<!-- github.com/alajmo/mani/core/tui/pages&#45;&gt;github.com/alajmo/mani/core/dao -->
<g id="edge24" class="edge">
<title>github.com/alajmo/mani/core/tui/pages:e&#45;&gt;github.com/alajmo/mani/core/dao</title>
<path fill="none" stroke="#07912e" stroke-width="2" stroke-opacity="0.698039" d="M1188,-238.09C1236.74,-238.09 1247.89,-226.88 1296,-219.09 1439.7,-195.81 1474.82,-181.79 1620,-171.09 2019.27,-141.67 2122.06,-165.15 2520,-209.09 2555.15,-212.97 2593.31,-218.69 2627.59,-224.38"/>
<polygon fill="#07912e" fill-opacity="0.698039" stroke="#07912e" stroke-width="2" stroke-opacity="0.698039" points="2627.19,-227.86 2637.63,-226.06 2628.34,-220.96 2627.19,-227.86"/>
</g>
<!-- github.com/alajmo/mani/core/tui/pages&#45;&gt;github.com/alajmo/mani/core/exec -->
<g id="edge25" class="edge">
<title>github.com/alajmo/mani/core/tui/pages:e&#45;&gt;github.com/alajmo/mani/core/exec</title>
<path fill="none" stroke="#076b91" stroke-width="2" stroke-opacity="0.698039" d="M1188,-238.09C1253.72,-238.09 1237,-310.14 1296,-339.09 1412.48,-396.25 1779.19,-438.07 1969.62,-456.56"/>
<polygon fill="#076b91" fill-opacity="0.698039" stroke="#076b91" stroke-width="2" stroke-opacity="0.698039" points="1969.38,-460.05 1979.67,-457.53 1970.05,-453.08 1969.38,-460.05"/>
</g>
<!-- github.com/alajmo/mani/core/tui/pages&#45;&gt;github.com/alajmo/mani/core/tui/components -->
<g id="edge26" class="edge">
<title>github.com/alajmo/mani/core/tui/pages:e&#45;&gt;github.com/alajmo/mani/core/tui/components</title>
<path fill="none" stroke="#91071e" stroke-width="2" stroke-opacity="0.698039" d="M1188,-238.09C1332.34,-238.09 1497.18,-224.56 1609.86,-213.24"/>
<polygon fill="#91071e" fill-opacity="0.698039" stroke="#91071e" stroke-width="2" stroke-opacity="0.698039" points="1610.32,-216.71 1619.92,-212.22 1609.62,-209.75 1610.32,-216.71"/>
</g>
<!-- github.com/alajmo/mani/core/tui/pages&#45;&gt;github.com/alajmo/mani/core/tui/misc -->
<g id="edge27" class="edge">
<title>github.com/alajmo/mani/core/tui/pages:e&#45;&gt;github.com/alajmo/mani/core/tui/misc</title>
<path fill="none" stroke="#078091" stroke-width="2" stroke-opacity="0.698039" d="M1188,-238.09C1226.41,-238.09 1734.67,-277.5 1969.51,-295.87"/>
<polygon fill="#078091" fill-opacity="0.698039" stroke="#078091" stroke-width="2" stroke-opacity="0.698039" points="1969.56,-299.38 1979.8,-296.67 1970.1,-292.4 1969.56,-299.38"/>
</g>
<!-- github.com/alajmo/mani/core/tui/pages&#45;&gt;github.com/alajmo/mani/core/tui/views -->
<g id="edge28" class="edge">
<title>github.com/alajmo/mani/core/tui/pages:e&#45;&gt;github.com/alajmo/mani/core/tui/views</title>
<path fill="none" stroke="#079091" stroke-width="2" stroke-opacity="0.698039" d="M1188,-238.09C1239.5,-238.09 1247.29,-263.36 1296,-280.09 1306.85,-283.82 1318.4,-287.53 1329.75,-291.04"/>
<polygon fill="#079091" fill-opacity="0.698039" stroke="#079091" stroke-width="2" stroke-opacity="0.698039" points="1329.06,-294.48 1339.65,-294.06 1331.11,-287.79 1329.06,-294.48"/>
</g>
<!-- github.com/alajmo/mani/core/tui/views&#45;&gt;github.com/alajmo/mani/core/dao -->
<g id="edge29" class="edge">
<title>github.com/alajmo/mani/core/tui/views:e&#45;&gt;github.com/alajmo/mani/core/dao</title>
<path fill="none" stroke="#07912e" stroke-width="2" stroke-opacity="0.698039" d="M1512,-312.09C1538.07,-312.09 1953.98,-279.62 1980,-278.09 2205.51,-264.82 2469.18,-254.02 2617.69,-248.37"/>
<polygon fill="#07912e" fill-opacity="0.698039" stroke="#07912e" stroke-width="2" stroke-opacity="0.698039" points="2617.88,-251.87 2627.74,-247.99 2617.61,-244.87 2617.88,-251.87"/>
</g>
<!-- github.com/alajmo/mani/core/tui/views&#45;&gt;github.com/alajmo/mani/core/print -->
<g id="edge30" class="edge">
<title>github.com/alajmo/mani/core/tui/views:e&#45;&gt;github.com/alajmo/mani/core/print</title>
<path fill="none" stroke="#070f91" stroke-width="2" stroke-opacity="0.698039" d="M1512,-312.09C1560.35,-312.09 1571.79,-321.43 1620,-325.09 1858.55,-343.18 2138.54,-348.23 2293.23,-349.61"/>
<polygon fill="#070f91" fill-opacity="0.698039" stroke="#070f91" stroke-width="2" stroke-opacity="0.698039" points="2293.66,-353.11 2303.69,-349.69 2293.72,-346.11 2293.66,-353.11"/>
</g>
<!-- github.com/alajmo/mani/core/tui/views&#45;&gt;github.com/alajmo/mani/core/tui/components -->
<g id="edge31" class="edge">
<title>github.com/alajmo/mani/core/tui/views:e&#45;&gt;github.com/alajmo/mani/core/tui/components</title>
<path fill="none" stroke="#91071e" stroke-width="2" stroke-opacity="0.698039" d="M1512,-312.09C1572.27,-312.09 1565.73,-256.3 1620,-230.09 1628.38,-226.04 1637.34,-222.46 1646.46,-219.31"/>
<polygon fill="#91071e" fill-opacity="0.698039" stroke="#91071e" stroke-width="2" stroke-opacity="0.698039" points="1647.6,-222.62 1656.01,-216.17 1645.42,-215.97 1647.6,-222.62"/>
</g>
<!-- github.com/alajmo/mani/core/tui/views&#45;&gt;github.com/alajmo/mani/core/tui/misc -->
<g id="edge32" class="edge">
<title>github.com/alajmo/mani/core/tui/views:e&#45;&gt;github.com/alajmo/mani/core/tui/misc</title>
<path fill="none" stroke="#078091" stroke-width="2" stroke-opacity="0.698039" d="M1512,-312.09C1670.45,-312.09 1853.43,-309.4 1969.63,-307.35"/>
<polygon fill="#078091" fill-opacity="0.698039" stroke="#078091" stroke-width="2" stroke-opacity="0.698039" points="1970.03,-310.85 1979.97,-307.17 1969.91,-303.85 1970.03,-310.85"/>
</g>
<!-- github.com/alajmo/mani/test/integration -->
<g id="node12" class="node">
<title>github.com/alajmo/mani/test/integration</title>
<g id="a_node12"><a xlink:href="https://pkg.go.dev/github.com/alajmo/mani/test/integration" xlink:title="github.com/alajmo/mani/test/integration\l0 / 0B\l" target="_graphviz">
<polygon fill="none" stroke="#075f91" stroke-width="2" stroke-opacity="0.698039" points="252,-544.09 0,-544.09 0,-508.09 252,-508.09 252,-544.09"/>
<text text-anchor="start" x="8" y="-529.09" font-family="Times,serif" font-size="10.00">github.com/alajmo/mani/test/integration</text>
<text text-anchor="start" x="8" y="-518.09" font-family="Times,serif" font-size="10.00">0 / 0B</text>
</a>
</g>
</g>
</g>
</svg>
