<?xml version="1.0" encoding="UTF-8" standalone="no"?>
<!DOCTYPE svg PUBLIC "-//W3C//DTD SVG 1.1//EN"
 "http://www.w3.org/Graphics/SVG/1.1/DTD/svg11.dtd">
<!-- Generated by graphviz version 2.40.1 (20161225.0304)
 -->
<!-- Title: G Pages: 1 -->
<svg width="1304pt" height="144pt"
 viewBox="0.00 0.00 1304.00 144.00" xmlns="http://www.w3.org/2000/svg" xmlns:xlink="http://www.w3.org/1999/xlink">
<g id="graph0" class="graph" transform="scale(1 1) rotate(0) translate(4 140)">
<title>G</title>
<polygon fill="#ffffff" stroke="transparent" points="-4,4 -4,-140 1300,-140 1300,4 -4,4"/>
<!-- n_github_com_alajmo_mani -->
<g id="node1" class="node">
<title>n_github_com_alajmo_mani</title>
<g id="a_node1"><a xlink:href="https://pkg.go.dev/github.com/alajmo/mani" xlink:title="github.com/alajmo/mani\l7 / 87B\l" target="_graphviz">
<polygon fill="none" stroke="#91075a" stroke-width="2" stroke-opacity="0.698039" points="180,-82 36,-82 36,-46 180,-46 180,-82"/>
<text text-anchor="start" x="44" y="-67" font-family="Times,serif" font-size="10.00" fill="#000000">github.com/alajmo/mani</text>
<text text-anchor="start" x="44" y="-56" font-family="Times,serif" font-size="10.00" fill="#000000">7 / 87B</text>
</a>
</g>
</g>
<!-- n_github_com_alajmo_mani_cmd -->
<g id="node2" class="node">
<title>n_github_com_alajmo_mani_cmd</title>
<g id="a_node2"><a xlink:href="https://pkg.go.dev/github.com/alajmo/mani/cmd" xlink:title="github.com/alajmo/mani/cmd\l855 / 27.5KB\l" target="_graphviz">
<polygon fill="none" stroke="#170791" stroke-width="2" stroke-opacity="0.698039" points="468,-82 324,-82 324,-46 468,-46 468,-82"/>
<text text-anchor="start" x="332" y="-67" font-family="Times,serif" font-size="10.00" fill="#000000">github.com/alajmo/mani/cmd</text>
<text text-anchor="start" x="332" y="-56" font-family="Times,serif" font-size="10.00" fill="#000000">855 / 27.5KB</text>
</a>
</g>
</g>
<!-- n_github_com_alajmo_mani&#45;&gt;n_github_com_alajmo_mani_cmd -->
<g id="edge1" class="edge">
<title>n_github_com_alajmo_mani:e&#45;&gt;n_github_com_alajmo_mani_cmd</title>
<path fill="none" stroke="#170791" stroke-width="2" stroke-opacity="0.698039" d="M180,-64C224.0771,-64 273.2137,-64 313.4719,-64"/>
<polygon fill="#170791" fill-opacity="0.698039" stroke="#170791" stroke-width="2" stroke-opacity="0.698039" points="313.5073,-67.5001 323.5073,-64 313.5072,-60.5001 313.5073,-67.5001"/>
</g>
<!-- n_github_com_alajmo_mani_core -->
<g id="node3" class="node">
<title>n_github_com_alajmo_mani_core</title>
<g id="a_node3"><a xlink:href="https://pkg.go.dev/github.com/alajmo/mani/core" xlink:title="github.com/alajmo/mani/core\l123 / 3.0KB\l" target="_graphviz">
<polygon fill="none" stroke="#073291" stroke-width="2" stroke-opacity="0.698039" points="1296,-97 1152,-97 1152,-61 1296,-61 1296,-97"/>
<text text-anchor="start" x="1160" y="-82" font-family="Times,serif" font-size="10.00" fill="#000000">github.com/alajmo/mani/core</text>
<text text-anchor="start" x="1160" y="-71" font-family="Times,serif" font-size="10.00" fill="#000000">123 / 3.0KB</text>
</a>
</g>
</g>
<!-- n_github_com_alajmo_mani_cmd&#45;&gt;n_github_com_alajmo_mani_core -->
<g id="edge2" class="edge">
<title>n_github_com_alajmo_mani_cmd:e&#45;&gt;n_github_com_alajmo_mani_core</title>
<path fill="none" stroke="#073291" stroke-width="2" stroke-opacity="0.698039" d="M468,-64C516.2954,-64 527.8145,-72.7435 576,-76 783.5498,-90.0266 835.9896,-85.3109 1044,-83 1075.8724,-82.6459 1110.9134,-81.9392 1141.5416,-81.2171"/>
<polygon fill="#073291" fill-opacity="0.698039" stroke="#073291" stroke-width="2" stroke-opacity="0.698039" points="1141.8353,-84.7111 1151.7484,-80.972 1141.6673,-77.7131 1141.8353,-84.7111"/>
</g>
<!-- n_github_com_alajmo_mani_core_dao -->
<g id="node4" class="node">
<title>n_github_com_alajmo_mani_core_dao</title>
<g id="a_node4"><a xlink:href="https://pkg.go.dev/github.com/alajmo/mani/core/dao" xlink:title="github.com/alajmo/mani/core/dao\l659 / 16.8KB\l" target="_graphviz">
<polygon fill="none" stroke="#07912e" stroke-width="2" stroke-opacity="0.698039" points="1044,-74 864,-74 864,-38 1044,-38 1044,-74"/>
<text text-anchor="start" x="872" y="-59" font-family="Times,serif" font-size="10.00" fill="#000000">github.com/alajmo/mani/core/dao</text>
<text text-anchor="start" x="872" y="-48" font-family="Times,serif" font-size="10.00" fill="#000000">659 / 16.8KB</text>
</a>
</g>
</g>
<!-- n_github_com_alajmo_mani_cmd&#45;&gt;n_github_com_alajmo_mani_core_dao -->
<g id="edge3" class="edge">
<title>n_github_com_alajmo_mani_cmd:e&#45;&gt;n_github_com_alajmo_mani_core_dao</title>
<path fill="none" stroke="#07912e" stroke-width="2" stroke-opacity="0.698039" d="M468,-64C601.4597,-64 755.5067,-60.9467 853.7678,-58.6127"/>
<polygon fill="#07912e" fill-opacity="0.698039" stroke="#07912e" stroke-width="2" stroke-opacity="0.698039" points="854.0738,-62.1065 863.987,-58.3678 853.906,-55.1085 854.0738,-62.1065"/>
</g>
<!-- n_github_com_alajmo_mani_core_print -->
<g id="node5" class="node">
<title>n_github_com_alajmo_mani_core_print</title>
<g id="a_node5"><a xlink:href="https://pkg.go.dev/github.com/alajmo/mani/core/print" xlink:title="github.com/alajmo/mani/core/print\l305 / 6.7KB\l" target="_graphviz">
<polygon fill="none" stroke="#070f91" stroke-width="2" stroke-opacity="0.698039" points="756,-36 576,-36 576,0 756,0 756,-36"/>
<text text-anchor="start" x="584" y="-21" font-family="Times,serif" font-size="10.00" fill="#000000">github.com/alajmo/mani/core/print</text>
<text text-anchor="start" x="584" y="-10" font-family="Times,serif" font-size="10.00" fill="#000000">305 / 6.7KB</text>
</a>
</g>
</g>
<!-- n_github_com_alajmo_mani_cmd&#45;&gt;n_github_com_alajmo_mani_core_print -->
<g id="edge4" class="edge">
<title>n_github_com_alajmo_mani_cmd:e&#45;&gt;n_github_com_alajmo_mani_core_print</title>
<path fill="none" stroke="#070f91" stroke-width="2" stroke-opacity="0.698039" d="M468,-64C515.6615,-64 568.1413,-51.1974 607.0907,-39.1005"/>
<polygon fill="#070f91" fill-opacity="0.698039" stroke="#070f91" stroke-width="2" stroke-opacity="0.698039" points="608.2209,-42.4138 616.6903,-36.0484 606.0999,-35.7429 608.2209,-42.4138"/>
</g>
<!-- n_github_com_alajmo_mani_core_dao&#45;&gt;n_github_com_alajmo_mani_core -->
<g id="edge5" class="edge">
<title>n_github_com_alajmo_mani_core_dao:e&#45;&gt;n_github_com_alajmo_mani_core</title>
<path fill="none" stroke="#073291" stroke-width="2" stroke-opacity="0.698039" d="M1044,-56C1075.984,-56 1110.9089,-59.6173 1141.4119,-63.9828"/>
<polygon fill="#073291" fill-opacity="0.698039" stroke="#073291" stroke-width="2" stroke-opacity="0.698039" points="1141.1714,-67.4852 1151.5762,-65.4878 1142.1967,-60.5607 1141.1714,-67.4852"/>
</g>
<!-- n_github_com_alajmo_mani_core_print&#45;&gt;n_github_com_alajmo_mani_core_dao -->
<g id="edge6" class="edge">
<title>n_github_com_alajmo_mani_core_print:e&#45;&gt;n_github_com_alajmo_mani_core_dao</title>
<path fill="none" stroke="#07912e" stroke-width="2" stroke-opacity="0.698039" d="M756,-18C798.413,-18 845.0352,-26.5135 882.3799,-35.4811"/>
<polygon fill="#07912e" fill-opacity="0.698039" stroke="#07912e" stroke-width="2" stroke-opacity="0.698039" points="881.6126,-38.8967 892.1595,-37.8903 883.287,-32.0999 881.6126,-38.8967"/>
</g>
<!-- n_github_com_alajmo_mani_test_integration -->
<g id="node6" class="node">
<title>n_github_com_alajmo_mani_test_integration</title>
<g id="a_node6"><a xlink:href="https://pkg.go.dev/github.com/alajmo/mani/test/integration" xlink:title="github.com/alajmo/mani/test/integration\l0 / 0B\l" target="_graphviz">
<polygon fill="none" stroke="#075f91" stroke-width="2" stroke-opacity="0.698039" points="216,-136 0,-136 0,-100 216,-100 216,-136"/>
<text text-anchor="start" x="8" y="-121" font-family="Times,serif" font-size="10.00" fill="#000000">github.com/alajmo/mani/test/integration</text>
<text text-anchor="start" x="8" y="-110" font-family="Times,serif" font-size="10.00" fill="#000000">0 / 0B</text>
</a>
</g>
</g>
</g>
</svg>
