<?xml version="1.0" encoding="UTF-8" standalone="no"?>
<!DOCTYPE svg PUBLIC "-//W3C//DTD SVG 1.1//EN"
 "http://www.w3.org/Graphics/SVG/1.1/DTD/svg11.dtd">
<!-- Generated by graphviz version 2.40.1 (20161225.0304)
 -->
<!-- Title: G Pages: 1 -->
<svg width="2348pt" height="430pt"
 viewBox="0.00 0.00 2348.00 430.34" xmlns="http://www.w3.org/2000/svg" xmlns:xlink="http://www.w3.org/1999/xlink">
<g id="graph0" class="graph" transform="scale(1 1) rotate(0) translate(4 426.3354)">
<title>G</title>
<polygon fill="#ffffff" stroke="transparent" points="-4,4 -4,-426.3354 2344,-426.3354 2344,4 -4,4"/>
<!-- n_github_com_alajmo_mani -->
<g id="node1" class="node">
<title>n_github_com_alajmo_mani</title>
<g id="a_node1"><a xlink:href="https://pkg.go.dev/github.com/alajmo/mani" xlink:title="github.com/alajmo/mani\l7 / 87B\l" target="_graphviz">
<polygon fill="none" stroke="#91075a" stroke-width="2" stroke-opacity="0.698039" points="144,-175 0,-175 0,-139 144,-139 144,-175"/>
<text text-anchor="start" x="8" y="-160" font-family="Times,serif" font-size="10.00" fill="#000000">github.com/alajmo/mani</text>
<text text-anchor="start" x="8" y="-149" font-family="Times,serif" font-size="10.00" fill="#000000">7 / 87B</text>
</a>
</g>
</g>
<!-- n_github_com_alajmo_mani_cmd -->
<g id="node2" class="node">
<title>n_github_com_alajmo_mani_cmd</title>
<g id="a_node2"><a xlink:href="https://pkg.go.dev/github.com/alajmo/mani/cmd" xlink:title="github.com/alajmo/mani/cmd\l1200 / 40.3KB\l" target="_graphviz">
<polygon fill="none" stroke="#170791" stroke-width="2" stroke-opacity="0.698039" points="396,-175 252,-175 252,-139 396,-139 396,-175"/>
<text text-anchor="start" x="260" y="-160" font-family="Times,serif" font-size="10.00" fill="#000000">github.com/alajmo/mani/cmd</text>
<text text-anchor="start" x="260" y="-149" font-family="Times,serif" font-size="10.00" fill="#000000">1200 / 40.3KB</text>
</a>
</g>
</g>
<!-- n_github_com_alajmo_mani&#45;&gt;n_github_com_alajmo_mani_cmd -->
<g id="edge1" class="edge">
<title>n_github_com_alajmo_mani:e&#45;&gt;n_github_com_alajmo_mani_cmd</title>
<path fill="none" stroke="#170791" stroke-width="2" stroke-opacity="0.698039" d="M144,-157C175.8665,-157 210.9063,-157 241.5352,-157"/>
<polygon fill="#170791" fill-opacity="0.698039" stroke="#170791" stroke-width="2" stroke-opacity="0.698039" points="241.7423,-160.5001 251.7423,-157 241.7423,-153.5001 241.7423,-160.5001"/>
</g>
<!-- n_github_com_alajmo_mani_core -->
<g id="node3" class="node">
<title>n_github_com_alajmo_mani_core</title>
<g id="a_node3"><a xlink:href="https://pkg.go.dev/github.com/alajmo/mani/core" xlink:title="github.com/alajmo/mani/core\l427 / 10.0KB\l" target="_graphviz">
<polygon fill="none" stroke="#073291" stroke-width="2" stroke-opacity="0.698039" points="936,-366 792,-366 792,-330 936,-330 936,-366"/>
<text text-anchor="start" x="800" y="-351" font-family="Times,serif" font-size="10.00" fill="#000000">github.com/alajmo/mani/core</text>
<text text-anchor="start" x="800" y="-340" font-family="Times,serif" font-size="10.00" fill="#000000">427 / 10.0KB</text>
</a>
</g>
</g>
<!-- n_github_com_alajmo_mani_cmd&#45;&gt;n_github_com_alajmo_mani_core -->
<g id="edge2" class="edge">
<title>n_github_com_alajmo_mani_cmd:e&#45;&gt;n_github_com_alajmo_mani_core</title>
<path fill="none" stroke="#073291" stroke-width="2" stroke-opacity="0.698039" d="M396,-157C452.0229,-157 453.2947,-198.1768 504,-222 599.7862,-267.0039 716.2874,-304.9254 790.3039,-327.0667"/>
<polygon fill="#073291" fill-opacity="0.698039" stroke="#073291" stroke-width="2" stroke-opacity="0.698039" points="789.4281,-330.4577 800.0109,-329.9528 791.4231,-323.748 789.4281,-330.4577"/>
</g>
<!-- n_github_com_alajmo_mani_core_dao -->
<g id="node4" class="node">
<title>n_github_com_alajmo_mani_core_dao</title>
<g id="a_node4"><a xlink:href="https://pkg.go.dev/github.com/alajmo/mani/core/dao" xlink:title="github.com/alajmo/mani/core/dao\l2495 / 61.6KB\l" target="_graphviz">
<polygon fill="none" stroke="#07912e" stroke-width="2" stroke-opacity="0.698039" points="684,-213 504,-213 504,-177 684,-177 684,-213"/>
<text text-anchor="start" x="512" y="-198" font-family="Times,serif" font-size="10.00" fill="#000000">github.com/alajmo/mani/core/dao</text>
<text text-anchor="start" x="512" y="-187" font-family="Times,serif" font-size="10.00" fill="#000000">2495 / 61.6KB</text>
</a>
</g>
</g>
<!-- n_github_com_alajmo_mani_cmd&#45;&gt;n_github_com_alajmo_mani_core_dao -->
<g id="edge3" class="edge">
<title>n_github_com_alajmo_mani_cmd:e&#45;&gt;n_github_com_alajmo_mani_core_dao</title>
<path fill="none" stroke="#07912e" stroke-width="2" stroke-opacity="0.698039" d="M396,-157C438.413,-157 485.0352,-165.5135 522.3799,-174.4811"/>
<polygon fill="#07912e" fill-opacity="0.698039" stroke="#07912e" stroke-width="2" stroke-opacity="0.698039" points="521.6126,-177.8967 532.1595,-176.8903 523.287,-171.0999 521.6126,-177.8967"/>
</g>
<!-- n_github_com_logrusorgru_aurora -->
<g id="node9" class="node">
<title>n_github_com_logrusorgru_aurora</title>
<g id="a_node9"><a xlink:href="https://pkg.go.dev/github.com/logrusorgru/aurora" xlink:title="github.com/logrusorgru/aurora\l2122 / 59.9KB\l" target="_graphviz">
<polygon fill="none" stroke="#079158" stroke-width="2" stroke-opacity="0.698039" points="936,-90 792,-90 792,-54 936,-54 936,-90"/>
<text text-anchor="start" x="800" y="-75" font-family="Times,serif" font-size="10.00" fill="#000000">github.com/logrusorgru/aurora</text>
<text text-anchor="start" x="800" y="-64" font-family="Times,serif" font-size="10.00" fill="#000000">2122 / 59.9KB</text>
</a>
</g>
</g>
<!-- n_github_com_alajmo_mani_cmd&#45;&gt;n_github_com_logrusorgru_aurora -->
<g id="edge4" class="edge">
<title>n_github_com_alajmo_mani_cmd:e&#45;&gt;n_github_com_logrusorgru_aurora</title>
<path fill="none" stroke="#079158" stroke-width="2" stroke-opacity="0.698039" d="M396,-157C539.2717,-157 703.3014,-117.9592 794.1477,-92.795"/>
<polygon fill="#079158" fill-opacity="0.698039" stroke="#079158" stroke-width="2" stroke-opacity="0.698039" points="795.3627,-96.0896 804.051,-90.0263 793.4779,-89.3482 795.3627,-96.0896"/>
</g>
<!-- n_github_com_spf13_cobra -->
<g id="node15" class="node">
<title>n_github_com_spf13_cobra</title>
<g id="a_node15"><a xlink:href="https://pkg.go.dev/github.com/spf13/cobra" xlink:title="github.com/spf13/cobra\l3989 / 147.1KB\l" target="_graphviz">
<polygon fill="none" stroke="#520791" stroke-width="2" stroke-opacity="0.698039" points="666,-75 522,-75 522,-39 666,-39 666,-75"/>
<text text-anchor="start" x="530" y="-60" font-family="Times,serif" font-size="10.00" fill="#000000">github.com/spf13/cobra</text>
<text text-anchor="start" x="530" y="-49" font-family="Times,serif" font-size="10.00" fill="#000000">3989 / 147.1KB</text>
</a>
</g>
</g>
<!-- n_github_com_alajmo_mani_cmd&#45;&gt;n_github_com_spf13_cobra -->
<g id="edge5" class="edge">
<title>n_github_com_alajmo_mani_cmd:e&#45;&gt;n_github_com_spf13_cobra</title>
<path fill="none" stroke="#520791" stroke-width="2" stroke-opacity="0.698039" d="M396,-157C429.7366,-157 510.0397,-110.1588 557.3658,-80.5932"/>
<polygon fill="#520791" fill-opacity="0.698039" stroke="#520791" stroke-width="2" stroke-opacity="0.698039" points="559.483,-83.3964 566.084,-75.1092 555.7558,-77.4712 559.483,-83.3964"/>
</g>
<!-- n_github_com_jedib0t_go_pretty_v6_list -->
<g id="node6" class="node">
<title>n_github_com_jedib0t_go_pretty_v6_list</title>
<g id="a_node6"><a xlink:href="https://pkg.go.dev/github.com/jedib0t/go-pretty/v6/list" xlink:title="github.com/jedib0t/go&#45;pretty/v6/list\l645 / 17.8KB\l" target="_graphviz">
<polygon fill="none" stroke="#349107" stroke-width="2" stroke-opacity="0.698039" points="1224,-347 1044,-347 1044,-311 1224,-311 1224,-347"/>
<text text-anchor="start" x="1052" y="-332" font-family="Times,serif" font-size="10.00" fill="#000000">github.com/jedib0t/go&#45;pretty/v6/list</text>
<text text-anchor="start" x="1052" y="-321" font-family="Times,serif" font-size="10.00" fill="#000000">645 / 17.8KB</text>
</a>
</g>
</g>
<!-- n_github_com_alajmo_mani_core&#45;&gt;n_github_com_jedib0t_go_pretty_v6_list -->
<g id="edge6" class="edge">
<title>n_github_com_alajmo_mani_core:e&#45;&gt;n_github_com_jedib0t_go_pretty_v6_list</title>
<path fill="none" stroke="#349107" stroke-width="2" stroke-opacity="0.698039" d="M936,-348C967.9396,-348 1002.6453,-345.5199 1033.9493,-342.3518"/>
<polygon fill="#349107" fill-opacity="0.698039" stroke="#349107" stroke-width="2" stroke-opacity="0.698039" points="1034.4043,-345.8234 1043.9856,-341.3013 1033.6755,-338.8614 1034.4043,-345.8234"/>
</g>
<!-- n_github_com_jedib0t_go_pretty_v6_table -->
<g id="node7" class="node">
<title>n_github_com_jedib0t_go_pretty_v6_table</title>
<g id="a_node7"><a xlink:href="https://pkg.go.dev/github.com/jedib0t/go-pretty/v6/table" xlink:title="github.com/jedib0t/go&#45;pretty/v6/table\l2659 / 102.7KB\l" target="_graphviz">
<polygon fill="none" stroke="#870791" stroke-width="2" stroke-opacity="0.698039" points="1224,-401 1044,-401 1044,-365 1224,-365 1224,-401"/>
<text text-anchor="start" x="1052" y="-386" font-family="Times,serif" font-size="10.00" fill="#000000">github.com/jedib0t/go&#45;pretty/v6/table</text>
<text text-anchor="start" x="1052" y="-375" font-family="Times,serif" font-size="10.00" fill="#000000">2659 / 102.7KB</text>
</a>
</g>
</g>
<!-- n_github_com_alajmo_mani_core&#45;&gt;n_github_com_jedib0t_go_pretty_v6_table -->
<g id="edge7" class="edge">
<title>n_github_com_alajmo_mani_core:e&#45;&gt;n_github_com_jedib0t_go_pretty_v6_table</title>
<path fill="none" stroke="#870791" stroke-width="2" stroke-opacity="0.698039" d="M936,-348C976.0446,-348 1019.9588,-355.0279 1056.2338,-362.7853"/>
<polygon fill="#870791" fill-opacity="0.698039" stroke="#870791" stroke-width="2" stroke-opacity="0.698039" points="1055.7348,-366.2591 1066.2531,-364.9874 1057.2375,-359.4223 1055.7348,-366.2591"/>
</g>
<!-- n_github_com_jedib0t_go_pretty_v6_text -->
<g id="node8" class="node">
<title>n_github_com_jedib0t_go_pretty_v6_text</title>
<g id="a_node8"><a xlink:href="https://pkg.go.dev/github.com/jedib0t/go-pretty/v6/text" xlink:title="github.com/jedib0t/go&#45;pretty/v6/text\l1185 / 33.4KB\l" target="_graphviz">
<polygon fill="none" stroke="#1f0791" stroke-width="2" stroke-opacity="0.698039" points="1512,-374 1332,-374 1332,-338 1512,-338 1512,-374"/>
<text text-anchor="start" x="1340" y="-359" font-family="Times,serif" font-size="10.00" fill="#000000">github.com/jedib0t/go&#45;pretty/v6/text</text>
<text text-anchor="start" x="1340" y="-348" font-family="Times,serif" font-size="10.00" fill="#000000">1185 / 33.4KB</text>
</a>
</g>
</g>
<!-- n_github_com_alajmo_mani_core&#45;&gt;n_github_com_jedib0t_go_pretty_v6_text -->
<g id="edge8" class="edge">
<title>n_github_com_alajmo_mani_core:e&#45;&gt;n_github_com_jedib0t_go_pretty_v6_text</title>
<path fill="none" stroke="#1f0791" stroke-width="2" stroke-opacity="0.698039" d="M936,-348C991.3472,-348 990.5212,-395.7409 1044,-410 1121.2995,-430.6104 1144.7079,-420.6187 1224,-410 1270.881,-403.7218 1322.3832,-389.4342 1361.1078,-377.1321"/>
<polygon fill="#1f0791" fill-opacity="0.698039" stroke="#1f0791" stroke-width="2" stroke-opacity="0.698039" points="1362.2216,-380.4505 1370.6671,-374.0533 1360.0756,-373.7875 1362.2216,-380.4505"/>
</g>
<!-- n_github_com_alajmo_mani_core_dao&#45;&gt;n_github_com_alajmo_mani_core -->
<g id="edge9" class="edge">
<title>n_github_com_alajmo_mani_core_dao:e&#45;&gt;n_github_com_alajmo_mani_core</title>
<path fill="none" stroke="#073291" stroke-width="2" stroke-opacity="0.698039" d="M684,-195C756.0836,-195 733.7615,-273.5227 792,-316 796.4897,-319.2747 801.3677,-322.3159 806.3976,-325.1152"/>
<polygon fill="#073291" fill-opacity="0.698039" stroke="#073291" stroke-width="2" stroke-opacity="0.698039" points="805.0786,-328.3746 815.5644,-329.8911 808.313,-322.1666 805.0786,-328.3746"/>
</g>
<!-- n_github_com_alajmo_mani_core_dao&#45;&gt;n_github_com_jedib0t_go_pretty_v6_list -->
<g id="edge10" class="edge">
<title>n_github_com_alajmo_mani_core_dao:e&#45;&gt;n_github_com_jedib0t_go_pretty_v6_list</title>
<path fill="none" stroke="#349107" stroke-width="2" stroke-opacity="0.698039" d="M684,-195C736.8945,-195 742.0845,-227.4994 792,-245 871.6007,-272.9084 964.7343,-295.1327 1033.6952,-309.6938"/>
<polygon fill="#349107" fill-opacity="0.698039" stroke="#349107" stroke-width="2" stroke-opacity="0.698039" points="1033.1848,-313.1628 1043.6898,-311.7863 1034.6193,-306.3113 1033.1848,-313.1628"/>
</g>
<!-- n_github_com_alajmo_mani_core_dao&#45;&gt;n_github_com_jedib0t_go_pretty_v6_table -->
<g id="edge11" class="edge">
<title>n_github_com_alajmo_mani_core_dao:e&#45;&gt;n_github_com_jedib0t_go_pretty_v6_table</title>
<path fill="none" stroke="#870791" stroke-width="2" stroke-opacity="0.698039" d="M684,-195C744.8094,-195 737.8511,-251.3292 792,-279 851.3647,-309.3361 872.2833,-301.3882 936,-321 984.225,-335.8435 995.8323,-340.9719 1044,-356 1050.2777,-357.9586 1056.8101,-359.9699 1063.3612,-361.9687"/>
<polygon fill="#870791" fill-opacity="0.698039" stroke="#870791" stroke-width="2" stroke-opacity="0.698039" points="1062.3596,-365.3223 1072.9452,-364.8807 1064.3946,-358.6247 1062.3596,-365.3223"/>
</g>
<!-- n_github_com_alajmo_mani_core_dao&#45;&gt;n_github_com_logrusorgru_aurora -->
<g id="edge12" class="edge">
<title>n_github_com_alajmo_mani_core_dao:e&#45;&gt;n_github_com_logrusorgru_aurora</title>
<path fill="none" stroke="#079158" stroke-width="2" stroke-opacity="0.698039" d="M684,-195C748.2218,-195 737.0059,-132.1677 792,-99 794.6025,-97.4304 797.3116,-95.9264 800.0876,-94.4888"/>
<polygon fill="#079158" fill-opacity="0.698039" stroke="#079158" stroke-width="2" stroke-opacity="0.698039" points="801.6476,-97.6223 809.133,-90.1244 798.6056,-91.3178 801.6476,-97.6223"/>
</g>
<!-- n_github_com_theckman_yacspin -->
<g id="node17" class="node">
<title>n_github_com_theckman_yacspin</title>
<g id="a_node17"><a xlink:href="https://pkg.go.dev/github.com/theckman/yacspin" xlink:title="github.com/theckman/yacspin\l1002 / 34.2KB\l" target="_graphviz">
<polygon fill="none" stroke="#079143" stroke-width="2" stroke-opacity="0.698039" points="936,-236 792,-236 792,-200 936,-200 936,-236"/>
<text text-anchor="start" x="800" y="-221" font-family="Times,serif" font-size="10.00" fill="#000000">github.com/theckman/yacspin</text>
<text text-anchor="start" x="800" y="-210" font-family="Times,serif" font-size="10.00" fill="#000000">1002 / 34.2KB</text>
</a>
</g>
</g>
<!-- n_github_com_alajmo_mani_core_dao&#45;&gt;n_github_com_theckman_yacspin -->
<g id="edge13" class="edge">
<title>n_github_com_alajmo_mani_core_dao:e&#45;&gt;n_github_com_theckman_yacspin</title>
<path fill="none" stroke="#079143" stroke-width="2" stroke-opacity="0.698039" d="M684,-195C715.984,-195 750.9089,-198.6173 781.4119,-202.9828"/>
<polygon fill="#079143" fill-opacity="0.698039" stroke="#079143" stroke-width="2" stroke-opacity="0.698039" points="781.1714,-206.4852 791.5762,-204.4878 782.1967,-199.5607 781.1714,-206.4852"/>
</g>
<!-- n_golang_org_x_term -->
<g id="node20" class="node">
<title>n_golang_org_x_term</title>
<g id="a_node20"><a xlink:href="https://pkg.go.dev/golang.org/x/term" xlink:title="golang.org/x/term\l1008 / 27.1KB\l" target="_graphviz">
<polygon fill="none" stroke="#91073a" stroke-width="2" stroke-opacity="0.698039" points="1476,-147 1368,-147 1368,-111 1476,-111 1476,-147"/>
<text text-anchor="start" x="1376" y="-132" font-family="Times,serif" font-size="10.00" fill="#000000">golang.org/x/term</text>
<text text-anchor="start" x="1376" y="-121" font-family="Times,serif" font-size="10.00" fill="#000000">1008 / 27.1KB</text>
</a>
</g>
</g>
<!-- n_github_com_alajmo_mani_core_dao&#45;&gt;n_golang_org_x_term -->
<g id="edge14" class="edge">
<title>n_github_com_alajmo_mani_core_dao:e&#45;&gt;n_golang_org_x_term</title>
<path fill="none" stroke="#91073a" stroke-width="2" stroke-opacity="0.698039" d="M684,-195C844.9362,-195 883.7096,-170.4022 1044,-156 1153.9924,-146.1171 1282.2545,-137.5865 1357.54,-132.8836"/>
<polygon fill="#91073a" fill-opacity="0.698039" stroke="#91073a" stroke-width="2" stroke-opacity="0.698039" points="1358.0405,-136.3594 1367.8041,-132.2457 1357.6062,-129.3728 1358.0405,-136.3594"/>
</g>
<!-- n_gopkg_in_yaml_v3 -->
<g id="node21" class="node">
<title>n_gopkg_in_yaml_v3</title>
<g id="a_node21"><a xlink:href="https://pkg.go.dev/gopkg.in/yaml.v3" xlink:title="gopkg.in/yaml.v3\l10160 / 319.8KB\l" target="_graphviz">
<polygon fill="none" stroke="#074291" stroke-width="2" stroke-opacity="0.698039" points="918,-144 810,-144 810,-108 918,-108 918,-144"/>
<text text-anchor="start" x="818" y="-129" font-family="Times,serif" font-size="10.00" fill="#000000">gopkg.in/yaml.v3</text>
<text text-anchor="start" x="818" y="-118" font-family="Times,serif" font-size="10.00" fill="#000000">10160 / 319.8KB</text>
</a>
</g>
</g>
<!-- n_github_com_alajmo_mani_core_dao&#45;&gt;n_gopkg_in_yaml_v3 -->
<g id="edge15" class="edge">
<title>n_github_com_alajmo_mani_core_dao:e&#45;&gt;n_gopkg_in_yaml_v3</title>
<path fill="none" stroke="#074291" stroke-width="2" stroke-opacity="0.698039" d="M684,-195C697.3346,-195 763.8303,-168.257 812.1271,-148.0692"/>
<polygon fill="#074291" fill-opacity="0.698039" stroke="#074291" stroke-width="2" stroke-opacity="0.698039" points="813.6544,-151.2241 821.5227,-144.1289 810.9472,-144.7688 813.6544,-151.2241"/>
</g>
<!-- n_github_com_fatih_color -->
<g id="node5" class="node">
<title>n_github_com_fatih_color</title>
<g id="a_node5"><a xlink:href="https://pkg.go.dev/github.com/fatih/color" xlink:title="github.com/fatih/color\l598 / 22.6KB\l" target="_graphviz">
<polygon fill="none" stroke="#07913a" stroke-width="2" stroke-opacity="0.698039" points="1206,-201 1062,-201 1062,-165 1206,-165 1206,-201"/>
<text text-anchor="start" x="1070" y="-186" font-family="Times,serif" font-size="10.00" fill="#000000">github.com/fatih/color</text>
<text text-anchor="start" x="1070" y="-175" font-family="Times,serif" font-size="10.00" fill="#000000">598 / 22.6KB</text>
</a>
</g>
</g>
<!-- n_github_com_mattn_go_colorable -->
<g id="node10" class="node">
<title>n_github_com_mattn_go_colorable</title>
<g id="a_node10"><a xlink:href="https://pkg.go.dev/github.com/mattn/go-colorable" xlink:title="github.com/mattn/go&#45;colorable\l83 / 1.8KB\l" target="_graphviz">
<polygon fill="none" stroke="#912407" stroke-width="2" stroke-opacity="0.698039" points="1494,-201 1350,-201 1350,-165 1494,-165 1494,-201"/>
<text text-anchor="start" x="1358" y="-186" font-family="Times,serif" font-size="10.00" fill="#000000">github.com/mattn/go&#45;colorable</text>
<text text-anchor="start" x="1358" y="-175" font-family="Times,serif" font-size="10.00" fill="#000000">83 / 1.8KB</text>
</a>
</g>
</g>
<!-- n_github_com_fatih_color&#45;&gt;n_github_com_mattn_go_colorable -->
<g id="edge16" class="edge">
<title>n_github_com_fatih_color:e&#45;&gt;n_github_com_mattn_go_colorable</title>
<path fill="none" stroke="#912407" stroke-width="2" stroke-opacity="0.698039" d="M1206,-183C1250.0771,-183 1299.2137,-183 1339.4719,-183"/>
<polygon fill="#912407" fill-opacity="0.698039" stroke="#912407" stroke-width="2" stroke-opacity="0.698039" points="1339.5073,-186.5001 1349.5073,-183 1339.5072,-179.5001 1339.5073,-186.5001"/>
</g>
<!-- n_github_com_mattn_go_isatty -->
<g id="node11" class="node">
<title>n_github_com_mattn_go_isatty</title>
<g id="a_node11"><a xlink:href="https://pkg.go.dev/github.com/mattn/go-isatty" xlink:title="github.com/mattn/go&#45;isatty\l17 / 571B\l" target="_graphviz">
<polygon fill="none" stroke="#7a0791" stroke-width="2" stroke-opacity="0.698039" points="1782,-201 1638,-201 1638,-165 1782,-165 1782,-201"/>
<text text-anchor="start" x="1646" y="-186" font-family="Times,serif" font-size="10.00" fill="#000000">github.com/mattn/go&#45;isatty</text>
<text text-anchor="start" x="1646" y="-175" font-family="Times,serif" font-size="10.00" fill="#000000">17 / 571B</text>
</a>
</g>
</g>
<!-- n_github_com_fatih_color&#45;&gt;n_github_com_mattn_go_isatty -->
<g id="edge17" class="edge">
<title>n_github_com_fatih_color:e&#45;&gt;n_github_com_mattn_go_isatty</title>
<path fill="none" stroke="#7a0791" stroke-width="2" stroke-opacity="0.698039" d="M1206,-183C1263.2713,-183 1275.0474,-203.9664 1332,-210 1411.5548,-218.4281 1432.1836,-215.417 1512,-210 1550.1195,-207.4129 1592.0844,-202.055 1627.5316,-196.789"/>
<polygon fill="#7a0791" fill-opacity="0.698039" stroke="#7a0791" stroke-width="2" stroke-opacity="0.698039" points="1628.4627,-200.1882 1637.8284,-195.2349 1627.418,-193.2665 1628.4627,-200.1882"/>
</g>
<!-- n_github_com_jedib0t_go_pretty_v6_list&#45;&gt;n_github_com_jedib0t_go_pretty_v6_text -->
<g id="edge18" class="edge">
<title>n_github_com_jedib0t_go_pretty_v6_list:e&#45;&gt;n_github_com_jedib0t_go_pretty_v6_text</title>
<path fill="none" stroke="#1f0791" stroke-width="2" stroke-opacity="0.698039" d="M1224,-329C1255.9312,-329 1290.4956,-332.49 1321.6724,-336.9605"/>
<polygon fill="#1f0791" fill-opacity="0.698039" stroke="#1f0791" stroke-width="2" stroke-opacity="0.698039" points="1321.2627,-340.438 1331.6681,-338.4433 1322.2899,-333.5138 1321.2627,-340.438"/>
</g>
<!-- n_github_com_jedib0t_go_pretty_v6_table&#45;&gt;n_github_com_jedib0t_go_pretty_v6_text -->
<g id="edge19" class="edge">
<title>n_github_com_jedib0t_go_pretty_v6_table:e&#45;&gt;n_github_com_jedib0t_go_pretty_v6_text</title>
<path fill="none" stroke="#1f0791" stroke-width="2" stroke-opacity="0.698039" d="M1224,-383C1255.9312,-383 1290.4956,-379.51 1321.6724,-375.0395"/>
<polygon fill="#1f0791" fill-opacity="0.698039" stroke="#1f0791" stroke-width="2" stroke-opacity="0.698039" points="1322.2899,-378.4862 1331.6681,-373.5567 1321.2627,-371.562 1322.2899,-378.4862"/>
</g>
<!-- n_github_com_mattn_go_runewidth -->
<g id="node12" class="node">
<title>n_github_com_mattn_go_runewidth</title>
<g id="a_node12"><a xlink:href="https://pkg.go.dev/github.com/mattn/go-runewidth" xlink:title="github.com/mattn/go&#45;runewidth\l745 / 30.5KB\l" target="_graphviz">
<polygon fill="none" stroke="#917407" stroke-width="2" stroke-opacity="0.698039" points="1800,-337 1620,-337 1620,-301 1800,-301 1800,-337"/>
<text text-anchor="start" x="1628" y="-322" font-family="Times,serif" font-size="10.00" fill="#000000">github.com/mattn/go&#45;runewidth</text>
<text text-anchor="start" x="1628" y="-311" font-family="Times,serif" font-size="10.00" fill="#000000">745 / 30.5KB</text>
</a>
</g>
</g>
<!-- n_github_com_jedib0t_go_pretty_v6_text&#45;&gt;n_github_com_mattn_go_runewidth -->
<g id="edge20" class="edge">
<title>n_github_com_jedib0t_go_pretty_v6_text:e&#45;&gt;n_github_com_mattn_go_runewidth</title>
<path fill="none" stroke="#917407" stroke-width="2" stroke-opacity="0.698039" d="M1512,-356C1553.5542,-356 1599.1921,-348.0281 1636.1695,-339.485"/>
<polygon fill="#917407" fill-opacity="0.698039" stroke="#917407" stroke-width="2" stroke-opacity="0.698039" points="1637.4374,-342.7814 1646.3587,-337.0664 1635.8207,-335.9706 1637.4374,-342.7814"/>
</g>
<!-- n_github_com_mattn_go_colorable&#45;&gt;n_github_com_mattn_go_isatty -->
<g id="edge21" class="edge">
<title>n_github_com_mattn_go_colorable:e&#45;&gt;n_github_com_mattn_go_isatty</title>
<path fill="none" stroke="#7a0791" stroke-width="2" stroke-opacity="0.698039" d="M1494,-183C1538.0771,-183 1587.2137,-183 1627.4719,-183"/>
<polygon fill="#7a0791" fill-opacity="0.698039" stroke="#7a0791" stroke-width="2" stroke-opacity="0.698039" points="1627.5073,-186.5001 1637.5073,-183 1627.5072,-179.5001 1627.5073,-186.5001"/>
</g>
<!-- n_golang_org_x_sys_unix -->
<g id="node19" class="node">
<title>n_golang_org_x_sys_unix</title>
<g id="a_node19"><a xlink:href="https://pkg.go.dev/golang.org/x/sys/unix" xlink:title="golang.org/x/sys/unix\l14761 / 546.1KB\l" target="_graphviz">
<polygon fill="none" stroke="#91076c" stroke-width="2" stroke-opacity="0.698039" points="2034,-176 1926,-176 1926,-140 2034,-140 2034,-176"/>
<text text-anchor="start" x="1934" y="-161" font-family="Times,serif" font-size="10.00" fill="#000000">golang.org/x/sys/unix</text>
<text text-anchor="start" x="1934" y="-150" font-family="Times,serif" font-size="10.00" fill="#000000">14761 / 546.1KB</text>
</a>
</g>
</g>
<!-- n_github_com_mattn_go_isatty&#45;&gt;n_golang_org_x_sys_unix -->
<g id="edge22" class="edge">
<title>n_github_com_mattn_go_isatty:e&#45;&gt;n_golang_org_x_sys_unix</title>
<path fill="none" stroke="#91076c" stroke-width="2" stroke-opacity="0.698039" d="M1782,-183C1826.8461,-183 1876.9588,-176.6092 1915.5485,-170.29"/>
<polygon fill="#91076c" fill-opacity="0.698039" stroke="#91076c" stroke-width="2" stroke-opacity="0.698039" points="1916.3229,-173.7091 1925.6058,-168.6023 1915.1644,-166.8056 1916.3229,-173.7091"/>
</g>
<!-- n_github_com_rivo_uniseg -->
<g id="node14" class="node">
<title>n_github_com_rivo_uniseg</title>
<g id="a_node14"><a xlink:href="https://pkg.go.dev/github.com/rivo/uniseg" xlink:title="github.com/rivo/uniseg\l1897 / 156.9KB\l" target="_graphviz">
<polygon fill="none" stroke="#914407" stroke-width="2" stroke-opacity="0.698039" points="2052,-337 1908,-337 1908,-301 2052,-301 2052,-337"/>
<text text-anchor="start" x="1916" y="-322" font-family="Times,serif" font-size="10.00" fill="#000000">github.com/rivo/uniseg</text>
<text text-anchor="start" x="1916" y="-311" font-family="Times,serif" font-size="10.00" fill="#000000">1897 / 156.9KB</text>
</a>
</g>
</g>
<!-- n_github_com_mattn_go_runewidth&#45;&gt;n_github_com_rivo_uniseg -->
<g id="edge23" class="edge">
<title>n_github_com_mattn_go_runewidth:e&#45;&gt;n_github_com_rivo_uniseg</title>
<path fill="none" stroke="#914407" stroke-width="2" stroke-opacity="0.698039" d="M1800,-319C1831.8665,-319 1866.9063,-319 1897.5352,-319"/>
<polygon fill="#914407" fill-opacity="0.698039" stroke="#914407" stroke-width="2" stroke-opacity="0.698039" points="1897.7423,-322.5001 1907.7423,-319 1897.7423,-315.5001 1897.7423,-322.5001"/>
</g>
<!-- n_github_com_pkg_errors -->
<g id="node13" class="node">
<title>n_github_com_pkg_errors</title>
<g id="a_node13"><a xlink:href="https://pkg.go.dev/github.com/pkg/errors" xlink:title="github.com/pkg/errors\l461 / 12.8KB\l" target="_graphviz">
<polygon fill="none" stroke="#910719" stroke-width="2" stroke-opacity="0.698039" points="1188,-255 1080,-255 1080,-219 1188,-219 1188,-255"/>
<text text-anchor="start" x="1088" y="-240" font-family="Times,serif" font-size="10.00" fill="#000000">github.com/pkg/errors</text>
<text text-anchor="start" x="1088" y="-229" font-family="Times,serif" font-size="10.00" fill="#000000">461 / 12.8KB</text>
</a>
</g>
</g>
<!-- n_github_com_spf13_pflag -->
<g id="node16" class="node">
<title>n_github_com_spf13_pflag</title>
<g id="a_node16"><a xlink:href="https://pkg.go.dev/github.com/spf13/pflag" xlink:title="github.com/spf13/pflag\l4733 / 170.3KB\l" target="_graphviz">
<polygon fill="none" stroke="#073091" stroke-width="2" stroke-opacity="0.698039" points="936,-36 792,-36 792,0 936,0 936,-36"/>
<text text-anchor="start" x="800" y="-21" font-family="Times,serif" font-size="10.00" fill="#000000">github.com/spf13/pflag</text>
<text text-anchor="start" x="800" y="-10" font-family="Times,serif" font-size="10.00" fill="#000000">4733 / 170.3KB</text>
</a>
</g>
</g>
<!-- n_github_com_spf13_cobra&#45;&gt;n_github_com_spf13_pflag -->
<g id="edge24" class="edge">
<title>n_github_com_spf13_cobra:e&#45;&gt;n_github_com_spf13_pflag</title>
<path fill="none" stroke="#073091" stroke-width="2" stroke-opacity="0.698039" d="M666,-57C709.2572,-57 756.8451,-47.9284 794.5245,-38.5355"/>
<polygon fill="#073091" fill-opacity="0.698039" stroke="#073091" stroke-width="2" stroke-opacity="0.698039" points="795.557,-41.8842 804.3783,-36.0159 793.8229,-35.1023 795.557,-41.8842"/>
</g>
<!-- n_github_com_theckman_yacspin&#45;&gt;n_github_com_fatih_color -->
<g id="edge25" class="edge">
<title>n_github_com_theckman_yacspin:e&#45;&gt;n_github_com_fatih_color</title>
<path fill="none" stroke="#07913a" stroke-width="2" stroke-opacity="0.698039" d="M936,-218C976.0446,-218 1019.9588,-210.9721 1056.2338,-203.2147"/>
<polygon fill="#07913a" fill-opacity="0.698039" stroke="#07913a" stroke-width="2" stroke-opacity="0.698039" points="1057.2375,-206.5777 1066.2531,-201.0126 1055.7348,-199.7409 1057.2375,-206.5777"/>
</g>
<!-- n_github_com_theckman_yacspin&#45;&gt;n_github_com_mattn_go_runewidth -->
<g id="edge26" class="edge">
<title>n_github_com_theckman_yacspin:e&#45;&gt;n_github_com_mattn_go_runewidth</title>
<path fill="none" stroke="#917407" stroke-width="2" stroke-opacity="0.698039" d="M936,-218C988.1726,-218 993.3543,-251.4705 1044,-264 1240.3398,-312.5734 1478.1241,-320.4969 1609.8545,-320.6091"/>
<polygon fill="#917407" fill-opacity="0.698039" stroke="#917407" stroke-width="2" stroke-opacity="0.698039" points="1609.9338,-324.1091 1619.9315,-320.6025 1609.9292,-317.1092 1609.9338,-324.1091"/>
</g>
<!-- n_github_com_theckman_yacspin&#45;&gt;n_github_com_pkg_errors -->
<g id="edge27" class="edge">
<title>n_github_com_theckman_yacspin:e&#45;&gt;n_github_com_pkg_errors</title>
<path fill="none" stroke="#910719" stroke-width="2" stroke-opacity="0.698039" d="M936,-218C980.8557,-218 1031.1671,-222.8915 1069.8498,-227.7107"/>
<polygon fill="#910719" fill-opacity="0.698039" stroke="#910719" stroke-width="2" stroke-opacity="0.698039" points="1069.5666,-231.2028 1079.9293,-228.9974 1070.453,-224.2592 1069.5666,-231.2028"/>
</g>
<!-- n_golang_org_x_sys_internal_unsafeheader -->
<g id="node18" class="node">
<title>n_golang_org_x_sys_internal_unsafeheader</title>
<g id="a_node18"><a xlink:href="https://pkg.go.dev/golang.org/x/sys/internal/unsafeheader" xlink:title="golang.org/x/sys/internal/unsafeheader\l26 / 0.9KB\l" target="_graphviz">
<polygon fill="none" stroke="#07916a" stroke-width="2" stroke-opacity="0.698039" points="2340,-176 2160,-176 2160,-140 2340,-140 2340,-176"/>
<text text-anchor="start" x="2168" y="-161" font-family="Times,serif" font-size="10.00" fill="#000000">golang.org/x/sys/internal/unsafeheader</text>
<text text-anchor="start" x="2168" y="-150" font-family="Times,serif" font-size="10.00" fill="#000000">26 / 0.9KB</text>
</a>
</g>
</g>
<!-- n_golang_org_x_sys_unix&#45;&gt;n_golang_org_x_sys_internal_unsafeheader -->
<g id="edge28" class="edge">
<title>n_golang_org_x_sys_unix:e&#45;&gt;n_golang_org_x_sys_internal_unsafeheader</title>
<path fill="none" stroke="#07916a" stroke-width="2" stroke-opacity="0.698039" d="M2034,-158C2071.7908,-158 2113.3007,-158 2149.7454,-158"/>
<polygon fill="#07916a" fill-opacity="0.698039" stroke="#07916a" stroke-width="2" stroke-opacity="0.698039" points="2149.8831,-161.5001 2159.8831,-158 2149.883,-154.5001 2149.8831,-161.5001"/>
</g>
<!-- n_golang_org_x_term&#45;&gt;n_golang_org_x_sys_unix -->
<g id="edge29" class="edge">
<title>n_golang_org_x_term:e&#45;&gt;n_golang_org_x_sys_unix</title>
<path fill="none" stroke="#91076c" stroke-width="2" stroke-opacity="0.698039" d="M1476,-129C1634.3451,-129 1820.2122,-143.4436 1915.8905,-151.9442"/>
<polygon fill="#91076c" fill-opacity="0.698039" stroke="#91076c" stroke-width="2" stroke-opacity="0.698039" points="1915.7118,-155.4422 1925.9843,-152.8488 1916.3367,-148.4701 1915.7118,-155.4422"/>
</g>
</g>
</svg>
