<?xml version="1.0" encoding="UTF-8" standalone="no"?>
<!DOCTYPE svg PUBLIC "-//W3C//DTD SVG 1.1//EN"
 "http://www.w3.org/Graphics/SVG/1.1/DTD/svg11.dtd">
<!-- Generated by graphviz version 2.40.1 (20161225.0304)
 -->
<!-- Title: G Pages: 1 -->
<svg width="2060pt" height="344pt"
 viewBox="0.00 0.00 2060.00 344.00" xmlns="http://www.w3.org/2000/svg" xmlns:xlink="http://www.w3.org/1999/xlink">
<g id="graph0" class="graph" transform="scale(1 1) rotate(0) translate(4 340)">
<title>G</title>
<polygon fill="#ffffff" stroke="transparent" points="-4,4 -4,-340 2056,-340 2056,4 -4,4"/>
<!-- n_github_com_alajmo_mani -->
<g id="node1" class="node">
<title>n_github_com_alajmo_mani</title>
<g id="a_node1"><a xlink:href="https://pkg.go.dev/github.com/alajmo/mani" xlink:title="github.com/alajmo/mani\l7 / 87B\l" target="_graphviz">
<polygon fill="none" stroke="#91075a" stroke-width="2" stroke-opacity="0.698039" points="144,-212 0,-212 0,-176 144,-176 144,-212"/>
<text text-anchor="start" x="8" y="-197" font-family="Times,serif" font-size="10.00" fill="#000000">github.com/alajmo/mani</text>
<text text-anchor="start" x="8" y="-186" font-family="Times,serif" font-size="10.00" fill="#000000">7 / 87B</text>
</a>
</g>
</g>
<!-- n_github_com_alajmo_mani_cmd -->
<g id="node2" class="node">
<title>n_github_com_alajmo_mani_cmd</title>
<g id="a_node2"><a xlink:href="https://pkg.go.dev/github.com/alajmo/mani/cmd" xlink:title="github.com/alajmo/mani/cmd\l855 / 27.5KB\l" target="_graphviz">
<polygon fill="none" stroke="#170791" stroke-width="2" stroke-opacity="0.698039" points="396,-212 252,-212 252,-176 396,-176 396,-212"/>
<text text-anchor="start" x="260" y="-197" font-family="Times,serif" font-size="10.00" fill="#000000">github.com/alajmo/mani/cmd</text>
<text text-anchor="start" x="260" y="-186" font-family="Times,serif" font-size="10.00" fill="#000000">855 / 27.5KB</text>
</a>
</g>
</g>
<!-- n_github_com_alajmo_mani&#45;&gt;n_github_com_alajmo_mani_cmd -->
<g id="edge1" class="edge">
<title>n_github_com_alajmo_mani:e&#45;&gt;n_github_com_alajmo_mani_cmd</title>
<path fill="none" stroke="#170791" stroke-width="2" stroke-opacity="0.698039" d="M144,-194C175.8665,-194 210.9063,-194 241.5352,-194"/>
<polygon fill="#170791" fill-opacity="0.698039" stroke="#170791" stroke-width="2" stroke-opacity="0.698039" points="241.7423,-197.5001 251.7423,-194 241.7423,-190.5001 241.7423,-197.5001"/>
</g>
<!-- n_github_com_alajmo_mani_core -->
<g id="node3" class="node">
<title>n_github_com_alajmo_mani_core</title>
<g id="a_node3"><a xlink:href="https://pkg.go.dev/github.com/alajmo/mani/core" xlink:title="github.com/alajmo/mani/core\l123 / 3.0KB\l" target="_graphviz">
<polygon fill="none" stroke="#073291" stroke-width="2" stroke-opacity="0.698039" points="1242,-336 1098,-336 1098,-300 1242,-300 1242,-336"/>
<text text-anchor="start" x="1106" y="-321" font-family="Times,serif" font-size="10.00" fill="#000000">github.com/alajmo/mani/core</text>
<text text-anchor="start" x="1106" y="-310" font-family="Times,serif" font-size="10.00" fill="#000000">123 / 3.0KB</text>
</a>
</g>
</g>
<!-- n_github_com_alajmo_mani_cmd&#45;&gt;n_github_com_alajmo_mani_core -->
<g id="edge2" class="edge">
<title>n_github_com_alajmo_mani_cmd:e&#45;&gt;n_github_com_alajmo_mani_core</title>
<path fill="none" stroke="#073291" stroke-width="2" stroke-opacity="0.698039" d="M396,-194C446.5964,-194 454.6966,-218.6346 504,-230 711.1974,-277.7629 961.0554,-302.1272 1087.7273,-312.1961"/>
<polygon fill="#073291" fill-opacity="0.698039" stroke="#073291" stroke-width="2" stroke-opacity="0.698039" points="1087.5009,-315.689 1097.7443,-312.9828 1088.0491,-308.7105 1087.5009,-315.689"/>
</g>
<!-- n_github_com_alajmo_mani_core_dao -->
<g id="node4" class="node">
<title>n_github_com_alajmo_mani_core_dao</title>
<g id="a_node4"><a xlink:href="https://pkg.go.dev/github.com/alajmo/mani/core/dao" xlink:title="github.com/alajmo/mani/core/dao\l659 / 16.8KB\l" target="_graphviz">
<polygon fill="none" stroke="#07912e" stroke-width="2" stroke-opacity="0.698039" points="972,-258 792,-258 792,-222 972,-222 972,-258"/>
<text text-anchor="start" x="800" y="-243" font-family="Times,serif" font-size="10.00" fill="#000000">github.com/alajmo/mani/core/dao</text>
<text text-anchor="start" x="800" y="-232" font-family="Times,serif" font-size="10.00" fill="#000000">659 / 16.8KB</text>
</a>
</g>
</g>
<!-- n_github_com_alajmo_mani_cmd&#45;&gt;n_github_com_alajmo_mani_core_dao -->
<g id="edge3" class="edge">
<title>n_github_com_alajmo_mani_cmd:e&#45;&gt;n_github_com_alajmo_mani_core_dao</title>
<path fill="none" stroke="#07912e" stroke-width="2" stroke-opacity="0.698039" d="M396,-194C444.4016,-194 455.8736,-202.8462 504,-208 598.0072,-218.0672 705.4464,-226.9063 781.6924,-232.729"/>
<polygon fill="#07912e" fill-opacity="0.698039" stroke="#07912e" stroke-width="2" stroke-opacity="0.698039" points="781.5331,-236.2269 791.7696,-233.4948 782.0637,-229.247 781.5331,-236.2269"/>
</g>
<!-- n_github_com_alajmo_mani_core_print -->
<g id="node5" class="node">
<title>n_github_com_alajmo_mani_core_print</title>
<g id="a_node5"><a xlink:href="https://pkg.go.dev/github.com/alajmo/mani/core/print" xlink:title="github.com/alajmo/mani/core/print\l305 / 6.7KB\l" target="_graphviz">
<polygon fill="none" stroke="#070f91" stroke-width="2" stroke-opacity="0.698039" points="684,-166 504,-166 504,-130 684,-130 684,-166"/>
<text text-anchor="start" x="512" y="-151" font-family="Times,serif" font-size="10.00" fill="#000000">github.com/alajmo/mani/core/print</text>
<text text-anchor="start" x="512" y="-140" font-family="Times,serif" font-size="10.00" fill="#000000">305 / 6.7KB</text>
</a>
</g>
</g>
<!-- n_github_com_alajmo_mani_cmd&#45;&gt;n_github_com_alajmo_mani_core_print -->
<g id="edge4" class="edge">
<title>n_github_com_alajmo_mani_cmd:e&#45;&gt;n_github_com_alajmo_mani_core_print</title>
<path fill="none" stroke="#070f91" stroke-width="2" stroke-opacity="0.698039" d="M396,-194C443.6615,-194 496.1413,-181.1974 535.0907,-169.1005"/>
<polygon fill="#070f91" fill-opacity="0.698039" stroke="#070f91" stroke-width="2" stroke-opacity="0.698039" points="536.2209,-172.4138 544.6903,-166.0484 534.0999,-165.7429 536.2209,-172.4138"/>
</g>
<!-- n_github_com_logrusorgru_aurora -->
<g id="node9" class="node">
<title>n_github_com_logrusorgru_aurora</title>
<g id="a_node9"><a xlink:href="https://pkg.go.dev/github.com/logrusorgru/aurora" xlink:title="github.com/logrusorgru/aurora\l2122 / 59.9KB\l" target="_graphviz">
<polygon fill="none" stroke="#079158" stroke-width="2" stroke-opacity="0.698039" points="1242,-174 1098,-174 1098,-138 1242,-138 1242,-174"/>
<text text-anchor="start" x="1106" y="-159" font-family="Times,serif" font-size="10.00" fill="#000000">github.com/logrusorgru/aurora</text>
<text text-anchor="start" x="1106" y="-148" font-family="Times,serif" font-size="10.00" fill="#000000">2122 / 59.9KB</text>
</a>
</g>
</g>
<!-- n_github_com_alajmo_mani_cmd&#45;&gt;n_github_com_logrusorgru_aurora -->
<g id="edge5" class="edge">
<title>n_github_com_alajmo_mani_cmd:e&#45;&gt;n_github_com_logrusorgru_aurora</title>
<path fill="none" stroke="#079158" stroke-width="2" stroke-opacity="0.698039" d="M396,-194C648.1684,-194 945.9943,-173.6295 1087.4409,-162.7176"/>
<polygon fill="#079158" fill-opacity="0.698039" stroke="#079158" stroke-width="2" stroke-opacity="0.698039" points="1088.0638,-166.1799 1097.7631,-161.9166 1087.5222,-159.2009 1088.0638,-166.1799"/>
</g>
<!-- n_github_com_spf13_cobra -->
<g id="node15" class="node">
<title>n_github_com_spf13_cobra</title>
<g id="a_node15"><a xlink:href="https://pkg.go.dev/github.com/spf13/cobra" xlink:title="github.com/spf13/cobra\l3497 / 128.0KB\l" target="_graphviz">
<polygon fill="none" stroke="#520791" stroke-width="2" stroke-opacity="0.698039" points="666,-74 522,-74 522,-38 666,-38 666,-74"/>
<text text-anchor="start" x="530" y="-59" font-family="Times,serif" font-size="10.00" fill="#000000">github.com/spf13/cobra</text>
<text text-anchor="start" x="530" y="-48" font-family="Times,serif" font-size="10.00" fill="#000000">3497 / 128.0KB</text>
</a>
</g>
</g>
<!-- n_github_com_alajmo_mani_cmd&#45;&gt;n_github_com_spf13_cobra -->
<g id="edge6" class="edge">
<title>n_github_com_alajmo_mani_cmd:e&#45;&gt;n_github_com_spf13_cobra</title>
<path fill="none" stroke="#520791" stroke-width="2" stroke-opacity="0.698039" d="M396,-194C400.9219,-194 505.3374,-119.619 560.505,-80.0723"/>
<polygon fill="#520791" fill-opacity="0.698039" stroke="#520791" stroke-width="2" stroke-opacity="0.698039" points="562.8276,-82.7136 568.9134,-74.0411 558.7476,-77.0256 562.8276,-82.7136"/>
</g>
<!-- n_github_com_alajmo_mani_core_dao&#45;&gt;n_github_com_alajmo_mani_core -->
<g id="edge7" class="edge">
<title>n_github_com_alajmo_mani_core_dao:e&#45;&gt;n_github_com_alajmo_mani_core</title>
<path fill="none" stroke="#073291" stroke-width="2" stroke-opacity="0.698039" d="M972,-240C1025.0827,-240 1030.4392,-271.9868 1080,-291 1085.1403,-292.972 1090.4896,-294.8933 1095.9033,-296.7431"/>
<polygon fill="#073291" fill-opacity="0.698039" stroke="#073291" stroke-width="2" stroke-opacity="0.698039" points="1095.093,-300.1618 1105.6864,-299.9907 1097.2985,-293.5183 1095.093,-300.1618"/>
</g>
<!-- n_github_com_alajmo_mani_core_dao&#45;&gt;n_github_com_logrusorgru_aurora -->
<g id="edge8" class="edge">
<title>n_github_com_alajmo_mani_core_dao:e&#45;&gt;n_github_com_logrusorgru_aurora</title>
<path fill="none" stroke="#079158" stroke-width="2" stroke-opacity="0.698039" d="M972,-240C1026.275,-240 1029.7705,-203.5614 1080,-183 1084.6919,-181.0794 1089.571,-179.2272 1094.5227,-177.4551"/>
<polygon fill="#079158" fill-opacity="0.698039" stroke="#079158" stroke-width="2" stroke-opacity="0.698039" points="1095.793,-180.7193 1104.1045,-174.149 1093.5098,-174.1021 1095.793,-180.7193"/>
</g>
<!-- n_github_com_theckman_yacspin -->
<g id="node17" class="node">
<title>n_github_com_theckman_yacspin</title>
<g id="a_node17"><a xlink:href="https://pkg.go.dev/github.com/theckman/yacspin" xlink:title="github.com/theckman/yacspin\l1002 / 34.2KB\l" target="_graphviz">
<polygon fill="none" stroke="#079143" stroke-width="2" stroke-opacity="0.698039" points="1242,-282 1098,-282 1098,-246 1242,-246 1242,-282"/>
<text text-anchor="start" x="1106" y="-267" font-family="Times,serif" font-size="10.00" fill="#000000">github.com/theckman/yacspin</text>
<text text-anchor="start" x="1106" y="-256" font-family="Times,serif" font-size="10.00" fill="#000000">1002 / 34.2KB</text>
</a>
</g>
</g>
<!-- n_github_com_alajmo_mani_core_dao&#45;&gt;n_github_com_theckman_yacspin -->
<g id="edge9" class="edge">
<title>n_github_com_alajmo_mani_core_dao:e&#45;&gt;n_github_com_theckman_yacspin</title>
<path fill="none" stroke="#079143" stroke-width="2" stroke-opacity="0.698039" d="M972,-240C1010.1339,-240 1052.1008,-244.4415 1087.5457,-249.5032"/>
<polygon fill="#079143" fill-opacity="0.698039" stroke="#079143" stroke-width="2" stroke-opacity="0.698039" points="1087.4389,-253.025 1097.8416,-251.0166 1088.4569,-246.0995 1087.4389,-253.025"/>
</g>
<!-- n_gopkg_in_yaml_v3 -->
<g id="node18" class="node">
<title>n_gopkg_in_yaml_v3</title>
<g id="a_node18"><a xlink:href="https://pkg.go.dev/gopkg.in/yaml.v3" xlink:title="gopkg.in/yaml.v3\l10160 / 319.8KB\l" target="_graphviz">
<polygon fill="none" stroke="#074291" stroke-width="2" stroke-opacity="0.698039" points="1224,-228 1116,-228 1116,-192 1224,-192 1224,-228"/>
<text text-anchor="start" x="1124" y="-213" font-family="Times,serif" font-size="10.00" fill="#000000">gopkg.in/yaml.v3</text>
<text text-anchor="start" x="1124" y="-202" font-family="Times,serif" font-size="10.00" fill="#000000">10160 / 319.8KB</text>
</a>
</g>
</g>
<!-- n_github_com_alajmo_mani_core_dao&#45;&gt;n_gopkg_in_yaml_v3 -->
<g id="edge10" class="edge">
<title>n_github_com_alajmo_mani_core_dao:e&#45;&gt;n_gopkg_in_yaml_v3</title>
<path fill="none" stroke="#074291" stroke-width="2" stroke-opacity="0.698039" d="M972,-240C1017.0006,-240 1067.1116,-232.3311 1105.6618,-224.748"/>
<polygon fill="#074291" fill-opacity="0.698039" stroke="#074291" stroke-width="2" stroke-opacity="0.698039" points="1106.5966,-228.13 1115.7077,-222.7227 1105.2132,-221.2681 1106.5966,-228.13"/>
</g>
<!-- n_github_com_alajmo_mani_core_print&#45;&gt;n_github_com_alajmo_mani_core_dao -->
<g id="edge11" class="edge">
<title>n_github_com_alajmo_mani_core_print:e&#45;&gt;n_github_com_alajmo_mani_core_dao</title>
<path fill="none" stroke="#07912e" stroke-width="2" stroke-opacity="0.698039" d="M684,-148C748.2171,-148 814.1548,-188.2927 851.411,-215.5476"/>
<polygon fill="#07912e" fill-opacity="0.698039" stroke="#07912e" stroke-width="2" stroke-opacity="0.698039" points="849.6984,-218.6373 859.8027,-221.8238 853.8908,-213.0317 849.6984,-218.6373"/>
</g>
<!-- n_github_com_jedib0t_go_pretty_v6_table -->
<g id="node7" class="node">
<title>n_github_com_jedib0t_go_pretty_v6_table</title>
<g id="a_node7"><a xlink:href="https://pkg.go.dev/github.com/jedib0t/go-pretty/v6/table" xlink:title="github.com/jedib0t/go&#45;pretty/v6/table\l2659 / 102.7KB\l" target="_graphviz">
<polygon fill="none" stroke="#870791" stroke-width="2" stroke-opacity="0.698039" points="972,-90 792,-90 792,-54 972,-54 972,-90"/>
<text text-anchor="start" x="800" y="-75" font-family="Times,serif" font-size="10.00" fill="#000000">github.com/jedib0t/go&#45;pretty/v6/table</text>
<text text-anchor="start" x="800" y="-64" font-family="Times,serif" font-size="10.00" fill="#000000">2659 / 102.7KB</text>
</a>
</g>
</g>
<!-- n_github_com_alajmo_mani_core_print&#45;&gt;n_github_com_jedib0t_go_pretty_v6_table -->
<g id="edge12" class="edge">
<title>n_github_com_alajmo_mani_core_print:e&#45;&gt;n_github_com_jedib0t_go_pretty_v6_table</title>
<path fill="none" stroke="#870791" stroke-width="2" stroke-opacity="0.698039" d="M684,-148C735.8307,-148 743.5698,-122.4644 792,-104 801.181,-100.4997 810.9332,-96.9055 820.5004,-93.4484"/>
<polygon fill="#870791" fill-opacity="0.698039" stroke="#870791" stroke-width="2" stroke-opacity="0.698039" points="821.749,-96.7189 829.9779,-90.0455 819.3835,-90.1307 821.749,-96.7189"/>
</g>
<!-- n_github_com_jedib0t_go_pretty_v6_text -->
<g id="node8" class="node">
<title>n_github_com_jedib0t_go_pretty_v6_text</title>
<g id="a_node8"><a xlink:href="https://pkg.go.dev/github.com/jedib0t/go-pretty/v6/text" xlink:title="github.com/jedib0t/go&#45;pretty/v6/text\l1185 / 33.4KB\l" target="_graphviz">
<polygon fill="none" stroke="#1f0791" stroke-width="2" stroke-opacity="0.698039" points="1260,-120 1080,-120 1080,-84 1260,-84 1260,-120"/>
<text text-anchor="start" x="1088" y="-105" font-family="Times,serif" font-size="10.00" fill="#000000">github.com/jedib0t/go&#45;pretty/v6/text</text>
<text text-anchor="start" x="1088" y="-94" font-family="Times,serif" font-size="10.00" fill="#000000">1185 / 33.4KB</text>
</a>
</g>
</g>
<!-- n_github_com_alajmo_mani_core_print&#45;&gt;n_github_com_jedib0t_go_pretty_v6_text -->
<g id="edge13" class="edge">
<title>n_github_com_alajmo_mani_core_print:e&#45;&gt;n_github_com_jedib0t_go_pretty_v6_text</title>
<path fill="none" stroke="#1f0791" stroke-width="2" stroke-opacity="0.698039" d="M684,-148C756.6241,-148 949.8207,-127.3843 1069.6068,-113.7554"/>
<polygon fill="#1f0791" fill-opacity="0.698039" stroke="#1f0791" stroke-width="2" stroke-opacity="0.698039" points="1070.35,-117.1934 1079.8887,-112.5822 1069.5564,-110.2385 1070.35,-117.1934"/>
</g>
<!-- n_github_com_alajmo_mani_core_print&#45;&gt;n_github_com_logrusorgru_aurora -->
<g id="edge14" class="edge">
<title>n_github_com_alajmo_mani_core_print:e&#45;&gt;n_github_com_logrusorgru_aurora</title>
<path fill="none" stroke="#079158" stroke-width="2" stroke-opacity="0.698039" d="M684,-148C825.8739,-148 991.0127,-151.4504 1087.6685,-153.8192"/>
<polygon fill="#079158" fill-opacity="0.698039" stroke="#079158" stroke-width="2" stroke-opacity="0.698039" points="1087.8734,-157.3253 1097.9569,-154.0736 1088.0465,-150.3274 1087.8734,-157.3253"/>
</g>
<!-- n_github_com_fatih_color -->
<g id="node6" class="node">
<title>n_github_com_fatih_color</title>
<g id="a_node6"><a xlink:href="https://pkg.go.dev/github.com/fatih/color" xlink:title="github.com/fatih/color\l585 / 22.2KB\l" target="_graphviz">
<polygon fill="none" stroke="#07913a" stroke-width="2" stroke-opacity="0.698039" points="1530,-255 1386,-255 1386,-219 1530,-219 1530,-255"/>
<text text-anchor="start" x="1394" y="-240" font-family="Times,serif" font-size="10.00" fill="#000000">github.com/fatih/color</text>
<text text-anchor="start" x="1394" y="-229" font-family="Times,serif" font-size="10.00" fill="#000000">585 / 22.2KB</text>
</a>
</g>
</g>
<!-- n_github_com_mattn_go_colorable -->
<g id="node10" class="node">
<title>n_github_com_mattn_go_colorable</title>
<g id="a_node10"><a xlink:href="https://pkg.go.dev/github.com/mattn/go-colorable" xlink:title="github.com/mattn/go&#45;colorable\l72 / 1.5KB\l" target="_graphviz">
<polygon fill="none" stroke="#912407" stroke-width="2" stroke-opacity="0.698039" points="1800,-242 1656,-242 1656,-206 1800,-206 1800,-242"/>
<text text-anchor="start" x="1664" y="-227" font-family="Times,serif" font-size="10.00" fill="#000000">github.com/mattn/go&#45;colorable</text>
<text text-anchor="start" x="1664" y="-216" font-family="Times,serif" font-size="10.00" fill="#000000">72 / 1.5KB</text>
</a>
</g>
</g>
<!-- n_github_com_fatih_color&#45;&gt;n_github_com_mattn_go_colorable -->
<g id="edge15" class="edge">
<title>n_github_com_fatih_color:e&#45;&gt;n_github_com_mattn_go_colorable</title>
<path fill="none" stroke="#912407" stroke-width="2" stroke-opacity="0.698039" d="M1530,-237C1567.9383,-237 1609.8779,-234.5942 1645.3552,-231.8524"/>
<polygon fill="#912407" fill-opacity="0.698039" stroke="#912407" stroke-width="2" stroke-opacity="0.698039" points="1645.9713,-235.3146 1655.6623,-231.0327 1645.4163,-228.3366 1645.9713,-235.3146"/>
</g>
<!-- n_github_com_mattn_go_isatty -->
<g id="node11" class="node">
<title>n_github_com_mattn_go_isatty</title>
<g id="a_node11"><a xlink:href="https://pkg.go.dev/github.com/mattn/go-isatty" xlink:title="github.com/mattn/go&#45;isatty\l24 / 0.7KB\l" target="_graphviz">
<polygon fill="none" stroke="#7a0791" stroke-width="2" stroke-opacity="0.698039" points="2052,-265 1908,-265 1908,-229 2052,-229 2052,-265"/>
<text text-anchor="start" x="1916" y="-250" font-family="Times,serif" font-size="10.00" fill="#000000">github.com/mattn/go&#45;isatty</text>
<text text-anchor="start" x="1916" y="-239" font-family="Times,serif" font-size="10.00" fill="#000000">24 / 0.7KB</text>
</a>
</g>
</g>
<!-- n_github_com_fatih_color&#45;&gt;n_github_com_mattn_go_isatty -->
<g id="edge16" class="edge">
<title>n_github_com_fatih_color:e&#45;&gt;n_github_com_mattn_go_isatty</title>
<path fill="none" stroke="#7a0791" stroke-width="2" stroke-opacity="0.698039" d="M1530,-237C1586.3446,-237 1599.7416,-247.8841 1656,-251 1719.9021,-254.5392 1736.0039,-251.711 1800,-251 1831.8724,-250.6459 1866.9134,-249.9392 1897.5416,-249.2171"/>
<polygon fill="#7a0791" fill-opacity="0.698039" stroke="#7a0791" stroke-width="2" stroke-opacity="0.698039" points="1897.8353,-252.7111 1907.7484,-248.972 1897.6673,-245.7131 1897.8353,-252.7111"/>
</g>
<!-- n_github_com_jedib0t_go_pretty_v6_table&#45;&gt;n_github_com_jedib0t_go_pretty_v6_text -->
<g id="edge17" class="edge">
<title>n_github_com_jedib0t_go_pretty_v6_table:e&#45;&gt;n_github_com_jedib0t_go_pretty_v6_text</title>
<path fill="none" stroke="#1f0791" stroke-width="2" stroke-opacity="0.698039" d="M972,-72C1006.8162,-72 1044.6915,-76.5905 1077.905,-82.1802"/>
<polygon fill="#1f0791" fill-opacity="0.698039" stroke="#1f0791" stroke-width="2" stroke-opacity="0.698039" points="1077.603,-85.68 1088.0544,-83.943 1078.8009,-78.7833 1077.603,-85.68"/>
</g>
<!-- n_github_com_mattn_go_runewidth -->
<g id="node12" class="node">
<title>n_github_com_mattn_go_runewidth</title>
<g id="a_node12"><a xlink:href="https://pkg.go.dev/github.com/mattn/go-runewidth" xlink:title="github.com/mattn/go&#45;runewidth\l745 / 30.5KB\l" target="_graphviz">
<polygon fill="none" stroke="#917407" stroke-width="2" stroke-opacity="0.698039" points="1548,-161 1368,-161 1368,-125 1548,-125 1548,-161"/>
<text text-anchor="start" x="1376" y="-146" font-family="Times,serif" font-size="10.00" fill="#000000">github.com/mattn/go&#45;runewidth</text>
<text text-anchor="start" x="1376" y="-135" font-family="Times,serif" font-size="10.00" fill="#000000">745 / 30.5KB</text>
</a>
</g>
</g>
<!-- n_github_com_jedib0t_go_pretty_v6_text&#45;&gt;n_github_com_mattn_go_runewidth -->
<g id="edge18" class="edge">
<title>n_github_com_jedib0t_go_pretty_v6_text:e&#45;&gt;n_github_com_mattn_go_runewidth</title>
<path fill="none" stroke="#917407" stroke-width="2" stroke-opacity="0.698039" d="M1260,-102C1304.4699,-102 1353.4127,-112.0396 1391.5123,-122.1828"/>
<polygon fill="#917407" fill-opacity="0.698039" stroke="#917407" stroke-width="2" stroke-opacity="0.698039" points="1390.8868,-125.6401 1401.4556,-124.8975 1392.7305,-118.8872 1390.8868,-125.6401"/>
</g>
<!-- n_github_com_mattn_go_colorable&#45;&gt;n_github_com_mattn_go_isatty -->
<g id="edge19" class="edge">
<title>n_github_com_mattn_go_colorable:e&#45;&gt;n_github_com_mattn_go_isatty</title>
<path fill="none" stroke="#7a0791" stroke-width="2" stroke-opacity="0.698039" d="M1800,-224C1831.984,-224 1866.9089,-227.6173 1897.4119,-231.9828"/>
<polygon fill="#7a0791" fill-opacity="0.698039" stroke="#7a0791" stroke-width="2" stroke-opacity="0.698039" points="1897.1714,-235.4852 1907.5762,-233.4878 1898.1967,-228.5607 1897.1714,-235.4852"/>
</g>
<!-- n_github_com_rivo_uniseg -->
<g id="node14" class="node">
<title>n_github_com_rivo_uniseg</title>
<g id="a_node14"><a xlink:href="https://pkg.go.dev/github.com/rivo/uniseg" xlink:title="github.com/rivo/uniseg\l1897 / 156.9KB\l" target="_graphviz">
<polygon fill="none" stroke="#914407" stroke-width="2" stroke-opacity="0.698039" points="1800,-161 1656,-161 1656,-125 1800,-125 1800,-161"/>
<text text-anchor="start" x="1664" y="-146" font-family="Times,serif" font-size="10.00" fill="#000000">github.com/rivo/uniseg</text>
<text text-anchor="start" x="1664" y="-135" font-family="Times,serif" font-size="10.00" fill="#000000">1897 / 156.9KB</text>
</a>
</g>
</g>
<!-- n_github_com_mattn_go_runewidth&#45;&gt;n_github_com_rivo_uniseg -->
<g id="edge20" class="edge">
<title>n_github_com_mattn_go_runewidth:e&#45;&gt;n_github_com_rivo_uniseg</title>
<path fill="none" stroke="#914407" stroke-width="2" stroke-opacity="0.698039" d="M1548,-143C1579.8665,-143 1614.9063,-143 1645.5352,-143"/>
<polygon fill="#914407" fill-opacity="0.698039" stroke="#914407" stroke-width="2" stroke-opacity="0.698039" points="1645.7423,-146.5001 1655.7423,-143 1645.7423,-139.5001 1645.7423,-146.5001"/>
</g>
<!-- n_github_com_pkg_errors -->
<g id="node13" class="node">
<title>n_github_com_pkg_errors</title>
<g id="a_node13"><a xlink:href="https://pkg.go.dev/github.com/pkg/errors" xlink:title="github.com/pkg/errors\l397 / 10.3KB\l" target="_graphviz">
<polygon fill="none" stroke="#910719" stroke-width="2" stroke-opacity="0.698039" points="1512,-309 1404,-309 1404,-273 1512,-273 1512,-309"/>
<text text-anchor="start" x="1412" y="-294" font-family="Times,serif" font-size="10.00" fill="#000000">github.com/pkg/errors</text>
<text text-anchor="start" x="1412" y="-283" font-family="Times,serif" font-size="10.00" fill="#000000">397 / 10.3KB</text>
</a>
</g>
</g>
<!-- n_github_com_spf13_pflag -->
<g id="node16" class="node">
<title>n_github_com_spf13_pflag</title>
<g id="a_node16"><a xlink:href="https://pkg.go.dev/github.com/spf13/pflag" xlink:title="github.com/spf13/pflag\l4733 / 170.3KB\l" target="_graphviz">
<polygon fill="none" stroke="#073091" stroke-width="2" stroke-opacity="0.698039" points="954,-36 810,-36 810,0 954,0 954,-36"/>
<text text-anchor="start" x="818" y="-21" font-family="Times,serif" font-size="10.00" fill="#000000">github.com/spf13/pflag</text>
<text text-anchor="start" x="818" y="-10" font-family="Times,serif" font-size="10.00" fill="#000000">4733 / 170.3KB</text>
</a>
</g>
</g>
<!-- n_github_com_spf13_cobra&#45;&gt;n_github_com_spf13_pflag -->
<g id="edge21" class="edge">
<title>n_github_com_spf13_cobra:e&#45;&gt;n_github_com_spf13_pflag</title>
<path fill="none" stroke="#073091" stroke-width="2" stroke-opacity="0.698039" d="M666,-56C712.4318,-56 763.6403,-47.3775 804.539,-38.3471"/>
<polygon fill="#073091" fill-opacity="0.698039" stroke="#073091" stroke-width="2" stroke-opacity="0.698039" points="805.4547,-41.7285 814.4368,-36.1097 803.9112,-34.9008 805.4547,-41.7285"/>
</g>
<!-- n_github_com_theckman_yacspin&#45;&gt;n_github_com_fatih_color -->
<g id="edge22" class="edge">
<title>n_github_com_theckman_yacspin:e&#45;&gt;n_github_com_fatih_color</title>
<path fill="none" stroke="#07913a" stroke-width="2" stroke-opacity="0.698039" d="M1242,-264C1286.4202,-264 1335.5847,-258.3082 1375.7729,-252.1513"/>
<polygon fill="#07913a" fill-opacity="0.698039" stroke="#07913a" stroke-width="2" stroke-opacity="0.698039" points="1376.4523,-255.5876 1385.7885,-250.5791 1375.3667,-248.6723 1376.4523,-255.5876"/>
</g>
<!-- n_github_com_theckman_yacspin&#45;&gt;n_github_com_mattn_go_runewidth -->
<g id="edge23" class="edge">
<title>n_github_com_theckman_yacspin:e&#45;&gt;n_github_com_mattn_go_runewidth</title>
<path fill="none" stroke="#917407" stroke-width="2" stroke-opacity="0.698039" d="M1242,-264C1281.3119,-264 1374.7226,-202.2242 1424.8521,-166.9531"/>
<polygon fill="#917407" fill-opacity="0.698039" stroke="#917407" stroke-width="2" stroke-opacity="0.698039" points="1426.9594,-169.7496 1433.0988,-161.1149 1422.9147,-164.0364 1426.9594,-169.7496"/>
</g>
<!-- n_github_com_theckman_yacspin&#45;&gt;n_github_com_pkg_errors -->
<g id="edge24" class="edge">
<title>n_github_com_theckman_yacspin:e&#45;&gt;n_github_com_pkg_errors</title>
<path fill="none" stroke="#910719" stroke-width="2" stroke-opacity="0.698039" d="M1242,-264C1293.2559,-264 1350.8288,-271.5784 1393.6387,-278.7052"/>
<polygon fill="#910719" fill-opacity="0.698039" stroke="#910719" stroke-width="2" stroke-opacity="0.698039" points="1393.1939,-282.1797 1403.6392,-280.4064 1394.3678,-275.2788 1393.1939,-282.1797"/>
</g>
</g>
</svg>
