<?xml version="1.0" encoding="UTF-8" standalone="no"?>
<!DOCTYPE svg PUBLIC "-//W3C//DTD SVG 1.1//EN"
 "http://www.w3.org/Graphics/SVG/1.1/DTD/svg11.dtd">
<!-- Generated by graphviz version 2.43.0 (0)
 -->
<!-- Title: G Pages: 1 -->
<svg width="1808pt" height="190pt"
 viewBox="0.00 0.00 1808.00 190.00" xmlns="http://www.w3.org/2000/svg" xmlns:xlink="http://www.w3.org/1999/xlink">
<g id="graph0" class="graph" transform="scale(1 1) rotate(0) translate(4 186)">
<title>G</title>
<polygon fill="white" stroke="transparent" points="-4,4 -4,-186 1804,-186 1804,4 -4,4"/>
<!-- github.com/alajmo/mani -->
<g id="node1" class="node">
<title>github.com/alajmo/mani</title>
<g id="a_node1"><a xlink:href="https://pkg.go.dev/github.com/alajmo/mani" xlink:title="github.com/alajmo/mani\l7 / 87B\l" target="_graphviz">
<polygon fill="none" stroke="#91075a" stroke-width="2" stroke-opacity="0.698039" points="198,-128 54,-128 54,-92 198,-92 198,-128"/>
<text text-anchor="start" x="62" y="-113" font-family="Times,serif" font-size="10.00">github.com/alajmo/mani</text>
<text text-anchor="start" x="62" y="-102" font-family="Times,serif" font-size="10.00">7 / 87B</text>
</a>
</g>
</g>
<!-- github.com/alajmo/mani/cmd -->
<g id="node2" class="node">
<title>github.com/alajmo/mani/cmd</title>
<g id="a_node2"><a xlink:href="https://pkg.go.dev/github.com/alajmo/mani/cmd" xlink:title="github.com/alajmo/mani/cmd\l940 / 32.0KB\l" target="_graphviz">
<polygon fill="none" stroke="#170791" stroke-width="2" stroke-opacity="0.698039" points="540,-128 360,-128 360,-92 540,-92 540,-128"/>
<text text-anchor="start" x="368" y="-113" font-family="Times,serif" font-size="10.00">github.com/alajmo/mani/cmd</text>
<text text-anchor="start" x="368" y="-102" font-family="Times,serif" font-size="10.00">940 / 32.0KB</text>
</a>
</g>
</g>
<!-- github.com/alajmo/mani&#45;&gt;github.com/alajmo/mani/cmd -->
<g id="edge1" class="edge">
<title>github.com/alajmo/mani:e&#45;&gt;github.com/alajmo/mani/cmd</title>
<path fill="none" stroke="#170791" stroke-width="2" stroke-opacity="0.698039" d="M199,-110C248.63,-110 303.81,-110 349.67,-110"/>
<polygon fill="#170791" fill-opacity="0.698039" stroke="#170791" stroke-width="2" stroke-opacity="0.698039" points="349.91,-113.5 359.91,-110 349.91,-106.5 349.91,-113.5"/>
</g>
<!-- github.com/alajmo/mani/core -->
<g id="node3" class="node">
<title>github.com/alajmo/mani/core</title>
<g id="a_node3"><a xlink:href="https://pkg.go.dev/github.com/alajmo/mani/core" xlink:title="github.com/alajmo/mani/core\l502 / 12.4KB\l" target="_graphviz">
<polygon fill="none" stroke="#073291" stroke-width="2" stroke-opacity="0.698039" points="1800,-97 1620,-97 1620,-61 1800,-61 1800,-97"/>
<text text-anchor="start" x="1628" y="-82" font-family="Times,serif" font-size="10.00">github.com/alajmo/mani/core</text>
<text text-anchor="start" x="1628" y="-71" font-family="Times,serif" font-size="10.00">502 / 12.4KB</text>
</a>
</g>
</g>
<!-- github.com/alajmo/mani/cmd&#45;&gt;github.com/alajmo/mani/core -->
<g id="edge2" class="edge">
<title>github.com/alajmo/mani/cmd:e&#45;&gt;github.com/alajmo/mani/core</title>
<path fill="none" stroke="#073291" stroke-width="2" stroke-opacity="0.698039" d="M540,-110C588.74,-110 599.45,-124.76 648,-129 1030.79,-162.41 1128.9,-127.7 1512,-98 1543.84,-95.53 1578.53,-92.35 1609.8,-89.3"/>
<polygon fill="#073291" fill-opacity="0.698039" stroke="#073291" stroke-width="2" stroke-opacity="0.698039" points="1610.21,-92.78 1619.82,-88.32 1609.53,-85.81 1610.21,-92.78"/>
</g>
<!-- github.com/alajmo/mani/core/dao -->
<g id="node4" class="node">
<title>github.com/alajmo/mani/core/dao</title>
<g id="a_node4"><a xlink:href="https://pkg.go.dev/github.com/alajmo/mani/core/dao" xlink:title="github.com/alajmo/mani/core/dao\l2080 / 57.3KB\l" target="_graphviz">
<polygon fill="none" stroke="#07912e" stroke-width="2" stroke-opacity="0.698039" points="1512,-74 1296,-74 1296,-38 1512,-38 1512,-74"/>
<text text-anchor="start" x="1304" y="-59" font-family="Times,serif" font-size="10.00">github.com/alajmo/mani/core/dao</text>
<text text-anchor="start" x="1304" y="-48" font-family="Times,serif" font-size="10.00">2080 / 57.3KB</text>
</a>
</g>
</g>
<!-- github.com/alajmo/mani/cmd&#45;&gt;github.com/alajmo/mani/core/dao -->
<g id="edge3" class="edge">
<title>github.com/alajmo/mani/cmd:e&#45;&gt;github.com/alajmo/mani/core/dao</title>
<path fill="none" stroke="#07912e" stroke-width="2" stroke-opacity="0.698039" d="M540,-110C588.03,-110 599.98,-113.11 648,-114 888.14,-118.45 949.48,-121.17 1188,-93 1225.05,-88.62 1265.41,-82.14 1301.06,-75.81"/>
<polygon fill="#07912e" fill-opacity="0.698039" stroke="#07912e" stroke-width="2" stroke-opacity="0.698039" points="1301.75,-79.25 1310.98,-74.04 1300.52,-72.36 1301.75,-79.25"/>
</g>
<!-- github.com/alajmo/mani/core/exec -->
<g id="node5" class="node">
<title>github.com/alajmo/mani/core/exec</title>
<g id="a_node5"><a xlink:href="https://pkg.go.dev/github.com/alajmo/mani/core/exec" xlink:title="github.com/alajmo/mani/core/exec\l481 / 12.4KB\l" target="_graphviz">
<polygon fill="none" stroke="#076b91" stroke-width="2" stroke-opacity="0.698039" points="864,-105 648,-105 648,-69 864,-69 864,-105"/>
<text text-anchor="start" x="656" y="-90" font-family="Times,serif" font-size="10.00">github.com/alajmo/mani/core/exec</text>
<text text-anchor="start" x="656" y="-79" font-family="Times,serif" font-size="10.00">481 / 12.4KB</text>
</a>
</g>
</g>
<!-- github.com/alajmo/mani/cmd&#45;&gt;github.com/alajmo/mani/core/exec -->
<g id="edge4" class="edge">
<title>github.com/alajmo/mani/cmd:e&#45;&gt;github.com/alajmo/mani/core/exec</title>
<path fill="none" stroke="#076b91" stroke-width="2" stroke-opacity="0.698039" d="M540,-110C571.76,-110 606,-107.49 637.62,-104.13"/>
<polygon fill="#076b91" fill-opacity="0.698039" stroke="#076b91" stroke-width="2" stroke-opacity="0.698039" points="638.24,-107.58 647.79,-103.01 637.47,-100.62 638.24,-107.58"/>
</g>
<!-- github.com/alajmo/mani/core/print -->
<g id="node6" class="node">
<title>github.com/alajmo/mani/core/print</title>
<g id="a_node6"><a xlink:href="https://pkg.go.dev/github.com/alajmo/mani/core/print" xlink:title="github.com/alajmo/mani/core/print\l473 / 13.5KB\l" target="_graphviz">
<polygon fill="none" stroke="#070f91" stroke-width="2" stroke-opacity="0.698039" points="1188,-36 972,-36 972,0 1188,0 1188,-36"/>
<text text-anchor="start" x="980" y="-21" font-family="Times,serif" font-size="10.00">github.com/alajmo/mani/core/print</text>
<text text-anchor="start" x="980" y="-10" font-family="Times,serif" font-size="10.00">473 / 13.5KB</text>
</a>
</g>
</g>
<!-- github.com/alajmo/mani/cmd&#45;&gt;github.com/alajmo/mani/core/print -->
<g id="edge5" class="edge">
<title>github.com/alajmo/mani/cmd:e&#45;&gt;github.com/alajmo/mani/core/print</title>
<path fill="none" stroke="#070f91" stroke-width="2" stroke-opacity="0.698039" d="M540,-110C592.89,-110 596.96,-73.87 648,-60 751.63,-31.84 873.81,-22.03 961.56,-18.86"/>
<polygon fill="#070f91" fill-opacity="0.698039" stroke="#070f91" stroke-width="2" stroke-opacity="0.698039" points="961.94,-22.34 971.82,-18.51 961.71,-15.35 961.94,-22.34"/>
</g>
<!-- github.com/alajmo/mani/core/dao&#45;&gt;github.com/alajmo/mani/core -->
<g id="edge6" class="edge">
<title>github.com/alajmo/mani/core/dao:e&#45;&gt;github.com/alajmo/mani/core</title>
<path fill="none" stroke="#073291" stroke-width="2" stroke-opacity="0.698039" d="M1512,-56C1543.85,-56 1578.4,-59 1609.54,-62.84"/>
<polygon fill="#073291" fill-opacity="0.698039" stroke="#073291" stroke-width="2" stroke-opacity="0.698039" points="1609.16,-66.32 1619.52,-64.11 1610.05,-59.37 1609.16,-66.32"/>
</g>
<!-- github.com/alajmo/mani/core/exec&#45;&gt;github.com/alajmo/mani/core -->
<g id="edge7" class="edge">
<title>github.com/alajmo/mani/core/exec:e&#45;&gt;github.com/alajmo/mani/core</title>
<path fill="none" stroke="#073291" stroke-width="2" stroke-opacity="0.698039" d="M864,-87C912,-87 924,-87.78 972,-88 1212.01,-89.11 1272.03,-87.29 1512,-83 1543.79,-82.43 1578.46,-81.75 1609.73,-81.11"/>
<polygon fill="#073291" fill-opacity="0.698039" stroke="#073291" stroke-width="2" stroke-opacity="0.698039" points="1609.83,-84.61 1619.76,-80.9 1609.69,-77.61 1609.83,-84.61"/>
</g>
<!-- github.com/alajmo/mani/core/exec&#45;&gt;github.com/alajmo/mani/core/dao -->
<g id="edge8" class="edge">
<title>github.com/alajmo/mani/core/exec:e&#45;&gt;github.com/alajmo/mani/core/dao</title>
<path fill="none" stroke="#07912e" stroke-width="2" stroke-opacity="0.698039" d="M864,-87C1009.54,-87 1176.83,-75.59 1285.93,-66.62"/>
<polygon fill="#07912e" fill-opacity="0.698039" stroke="#07912e" stroke-width="2" stroke-opacity="0.698039" points="1286.3,-70.1 1295.98,-65.79 1285.73,-63.13 1286.3,-70.1"/>
</g>
<!-- github.com/alajmo/mani/core/exec&#45;&gt;github.com/alajmo/mani/core/print -->
<g id="edge9" class="edge">
<title>github.com/alajmo/mani/core/exec:e&#45;&gt;github.com/alajmo/mani/core/print</title>
<path fill="none" stroke="#070f91" stroke-width="2" stroke-opacity="0.698039" d="M864,-87C914.74,-87 923.68,-65.49 972,-50 983.4,-46.35 995.52,-42.59 1007.35,-39"/>
<polygon fill="#070f91" fill-opacity="0.698039" stroke="#070f91" stroke-width="2" stroke-opacity="0.698039" points="1008.64,-42.27 1017.2,-36.03 1006.61,-35.57 1008.64,-42.27"/>
</g>
<!-- github.com/alajmo/mani/core/print&#45;&gt;github.com/alajmo/mani/core -->
<g id="edge10" class="edge">
<title>github.com/alajmo/mani/core/print:e&#45;&gt;github.com/alajmo/mani/core</title>
<path fill="none" stroke="#073291" stroke-width="2" stroke-opacity="0.698039" d="M1188,-18C1332.08,-18 1369.35,-8.72 1512,-29 1555.77,-35.22 1603.89,-47.33 1641.62,-58.08"/>
<polygon fill="#073291" fill-opacity="0.698039" stroke="#073291" stroke-width="2" stroke-opacity="0.698039" points="1640.89,-61.51 1651.47,-60.92 1642.83,-54.78 1640.89,-61.51"/>
</g>
<!-- github.com/alajmo/mani/core/print&#45;&gt;github.com/alajmo/mani/core/dao -->
<g id="edge11" class="edge">
<title>github.com/alajmo/mani/core/print:e&#45;&gt;github.com/alajmo/mani/core/dao</title>
<path fill="none" stroke="#07912e" stroke-width="2" stroke-opacity="0.698039" d="M1188,-18C1234.22,-18 1285.2,-26.62 1325.9,-35.65"/>
<polygon fill="#07912e" fill-opacity="0.698039" stroke="#07912e" stroke-width="2" stroke-opacity="0.698039" points="1325.23,-39.09 1335.75,-37.89 1326.78,-32.26 1325.23,-39.09"/>
</g>
<!-- github.com/alajmo/mani/test/integration -->
<g id="node7" class="node">
<title>github.com/alajmo/mani/test/integration</title>
<g id="a_node7"><a xlink:href="https://pkg.go.dev/github.com/alajmo/mani/test/integration" xlink:title="github.com/alajmo/mani/test/integration\l0 / 0B\l" target="_graphviz">
<polygon fill="none" stroke="#075f91" stroke-width="2" stroke-opacity="0.698039" points="252,-182 0,-182 0,-146 252,-146 252,-182"/>
<text text-anchor="start" x="8" y="-167" font-family="Times,serif" font-size="10.00">github.com/alajmo/mani/test/integration</text>
<text text-anchor="start" x="8" y="-156" font-family="Times,serif" font-size="10.00">0 / 0B</text>
</a>
</g>
</g>
</g>
</svg>
